<svg xmlns="http://www.w3.org/2000/svg" viewBox="0 0 20.3 19.8"><path d="M19.7 0H.5C.2 0 0 .2 0 .5V15.3c0 .1.1.3.2.4 0 0 .1.1.2.1h4.1l.1 3.5c0 .2.1.4.3.5.1 0 .2.1.2.1.1 0 .2 0 .3-.1l5-3.9H20c.1 0 .1-.1.2-.1.1-.1.2-.2.2-.4V.5c-.1-.3-.4-.5-.7-.5zm-.5 14.4v.5h-9.1c-.1 0-.2 0-.3.1l-4.3 3.3-.1-2.9c0-.3-.2-.5-.5-.5H1V1h18.2V14.4z"/><path d="M5.5 6.8c-.7 0-1.3.6-1.3 1.3s.6 1.3 1.3 1.3 1.3-.6 1.3-1.3-.6-1.3-1.3-1.3zM10.4 6.8c-.7 0-1.3.6-1.3 1.3s.6 1.3 1.3 1.3 1.3-.6 1.3-1.3-.6-1.3-1.3-1.3zM15.3 6.8c-.7 0-1.3.6-1.3 1.3s.6 1.3 1.3 1.3 1.3-.6 1.3-1.3-.6-1.3-1.3-1.3z"/></svg>