<svg height="24" viewBox="0 0 23 24" width="23" xmlns="http://www.w3.org/2000/svg" xmlns:xlink="http://www.w3.org/1999/xlink"><mask id="a" fill="#fff"><path d="m.00017778.22248889h22.88160002v22.88862221h-22.88160002z" fill="#fff" fill-rule="evenodd"/></mask><g fill="#4d8055" fill-rule="evenodd"><path d="m13.2577778 5.13866667h4.9662222v-1.38311111h-4.9662222z"/><path d="m11.1075556 8.00533333h7.1164444v-1.38311111h-7.1164444z"/><path d="m11.1075556 10.8711111h7.1164444v-1.3831111h-7.1164444z"/><path d="m14.6942222 13.7377778h3.5297778v-1.3831111h-3.5297778z"/><path d="m7.88284444 16.7113778h-.38311111c-.21155555 0-.38311111-.1715556-.38311111-.3831111v-1.7662223h-4.30044444v-8.65688884h5.06666666zm12.18222226-2.1493334h-4.2995556v1.7662223c0 .2115555-.1715555.3831111-.3831111.3831111h-6.11644444v-15.1057778h10.79911114zm-12.56533337 3.5324445h7.88266667c.9742222 0 1.7662222-.792 1.7662222-1.7662222v-.3831111h4.3502222v5.7831111h-20.11555551v-5.7831111h4.35022222v.3831111c0 .9742222.792 1.7662222 1.76622222 1.7662222zm13.94844447-3.5324445v-14.33955551h-13.56533336v4.29955555h-6.44977777v10.03999996h-1.43288889v8.5493334h22.88177782v-8.5493334z" mask="url(#a)" transform="translate(0 .666667)"/></g></svg>