<svg xmlns="http://www.w3.org/2000/svg" viewBox="0 0 30 30"><path d="M15 0C6.7 0 0 6.7 0 15s6.7 15 15 15 15-6.7 15-15S23.3 0 15 0zm1.2 22c0 .2 0 .2-.2.4s-.2.2-.4.2h-2.2c-.2 0-.2 0-.4-.2s-.2-.2-.2-.4v-2c0-.2 0-.2.2-.4s.2-.2.4-.2h2.2c.2 0 .4.2.4.2.2.2.2.2.2.4v2zm3.4-9.4c-.4.6-.8 1.2-1.6 2-.4.4-.4.6-.8 1.4-.2.6-.6.8-.6 1.2-.2.4-.2.6-.2.8s0 .2-.2.4c0 .2-.2.2-.4.2h-2.2c-.2 0-.4-.2-.4-.2-.2-.2-.2-.2-.2-.4v-.8c.2-.8.4-1.4.8-1.8.4-.6.8-1.2 1.4-1.8l1.4-1.4c.2-.4.4-.6.4-1 0-.6-.2-1-.6-1.4-.4-.4-1-.6-1.6-.6-1.4 0-2.4.8-2.6 2.2 0 .4-.2.6-.6.6h-2c-.2 0-.4 0-.4-.2-.2-.2-.2-.2-.2-.4 0-.8.2-1.6.6-2.2.6-.8 1.2-1.4 2-1.8 1-.4 2-.6 3.2-.6s2.2.2 3 .6c.8.4 1.4.8 1.8 1.4.4.6.6 1.2.6 1.8 0 .8-.2 1.4-.6 2z"/></svg>