<?xml version="1.0" encoding="utf-8"?>
<!-- Generator: Adobe Illustrator 24.2.1, SVG Export Plug-In . SVG Version: 6.00 Build 0)  -->
<svg version="1.1" id="Layer_1" xmlns="http://www.w3.org/2000/svg" xmlns:xlink="http://www.w3.org/1999/xlink" x="0px" y="0px"
	 viewBox="0 0 14.6 14.6" style="enable-background:new 0 0 14.6 14.6;" xml:space="preserve">
<g>
	<path d="M7.3,0C3.3,0,0,3.3,0,7.3s3.3,7.3,7.3,7.3s7.3-3.3,7.3-7.3S11.3,0,7.3,0z M7.3,13.4c-3.4,0-6.1-2.7-6.1-6.1
		c0-3.4,2.7-6.1,6.1-6.1c3.4,0,6.1,2.7,6.1,6.1C13.4,10.7,10.7,13.4,7.3,13.4z"/>
	<path d="M7.8,3.7H6.7c-0.1,0-0.2,0.1-0.2,0.1C6.4,3.9,6.4,3.9,6.4,4v1c0,0.1,0,0.1,0.1,0.2c0.1,0.1,0.1,0.1,0.2,0.1h1.1
		c0.1,0,0.1,0,0.2-0.1C8.1,5.1,8.1,5.1,8.1,5V4c0-0.1,0-0.1-0.1-0.2C7.9,3.7,7.9,3.7,7.8,3.7z"/>
	<path d="M7.8,6.3H6.7c-0.1,0-0.2,0.3-0.2,0.3C6.4,6.9,6.4,6.9,6.4,7.2v3.1c0,0.3,0,0.3,0.1,0.6c0.1,0.3,0.1,0.3,0.2,0.3h1.1
		c0.1,0,0.1,0,0.2-0.3c0.1-0.3,0.1-0.3,0.1-0.6V7.2c0-0.3,0-0.3-0.1-0.6C7.9,6.3,7.9,6.3,7.8,6.3z"/>
</g>
</svg>
