<?xml version="1.0" encoding="utf-8"?>
<svg version="1.1" id="Layer_1" xmlns="http://www.w3.org/2000/svg" xmlns:xlink="http://www.w3.org/1999/xlink" x="0px" y="0px"
	 viewBox="0 0 19.6 19.6" style="enable-background:new 0 0 19.6 19.6;" xml:space="preserve">
<g>
	<path fill="#767676" d="M2.6,5l0.6,0.5c0.1,0.1,0.2,0.1,0.2,0c0,0,0.1-0.1,0.1-0.2V5V3.6h13.2c0.7,0,1.2,0.5,1.2,1.2V5v3.8
		c0,0.4,0.4,0.8,0.8,0.8s0.8-0.4,0.8-0.8V5V4.8c0-0.7-0.3-1.5-0.8-2c-0.5-0.5-1.2-0.8-2-0.8H3.6V0.2C3.6,0.1,3.5,0,3.5,0
		c0,0-0.1,0-0.2,0l0,0L0.1,2.7C0,2.7,0,2.8,0.1,2.9L2.6,5z"/>
	<path fill="#767676" d="M19.6,16.7L17,14.6l-0.6-0.5c-0.1-0.1-0.2-0.1-0.2,0c0,0-0.1,0.1-0.1,0.2v0.4V16H2.8c-0.7,0-1.2-0.5-1.2-1.2
		v-0.2v-3.8c0-0.4-0.4-0.8-0.8-0.8C0.4,10,0,10.4,0,10.8v3.8v0.2c0,1.5,1.3,2.8,2.8,2.8H16v1.8c0,0.1,0.1,0.2,0.1,0.2
		c0,0,0.1,0,0.2,0l0,0l3.2-2.6C19.7,16.9,19.7,16.8,19.6,16.7z"/>
</g>
</svg>
