<svg xmlns="http://www.w3.org/2000/svg" xmlns:xlink="http://www.w3.org/1999/xlink" viewBox="0 0 19.2 19.2">
	<path id="a" d="M19 19c-.3.3-1.2.3-1.5 0L14 15c-1.4 1-3.8 1.9-5.5 1.9-1.1 0-2.2-.2-3.3-.7s-1.9-1-2.7-1.8c-.8-.8-1.4-1.7-1.8-2.7S0 9.6 0 8.5s.2-2.2.7-3.3 1-1.9 1.8-2.7c.8-.8 1.7-1.4 2.7-1.8S7.3 0 8.5 0s2.2.2 3.3.7 1.9 1 2.7 1.8c.8.8 1.4 1.7 1.8 2.7s.7 2.1.7 3.3c0 1.8-.9 4.1-1.9 5.5l4 3.5c.2.3.2 1.2-.1 1.5zM15.1 8.6c0-1.8-.6-3.3-1.9-4.6s-2.8-1.9-4.6-1.9C6.8 2.1 5.3 2.7 4 4S2.1 6.8 2.1 8.6c0 1.8.6 3.3 1.9 4.6s2.8 1.9 4.6 1.9c1.8 0 3.3-.6 4.6-1.9s1.9-2.8 1.9-4.6z"/>
</svg>
