<?xml version="1.0" encoding="utf-8"?>
<!-- Gexnerator: Adobe Illustrator 24.2.3, SVG Export Plug-In . SVG Version: 6.00 Build 0)  -->
<svg version="1.1" id="Layer_1" xmlns="http://www.w3.org/2000/svg" xmlns:xlink="http://www.w3.org/1999/xlink" x="0px" y="0px"
	 viewBox="0 0 17.9 17.9" style="enable-background:new 0 0 17.9 17.9;" xml:space="preserve">
<path d="M14.6,11.4c-1,0-1.9,0.5-2.5,1.2L6.5,9.6c0-0.2,0.1-0.4,0.1-0.7c0-0.2,0-0.4-0.1-0.7l5.7-2.9c0.6,0.7,1.5,1.2,2.5,1.2
	c1.8,0,3.3-1.5,3.3-3.3c0-1.8-1.5-3.3-3.3-3.3s-3.3,1.5-3.3,3.3c0,0.3,0,0.5,0.1,0.7L5.8,6.9C5.2,6.2,4.3,5.7,3.3,5.7
	C1.5,5.7,0,7.2,0,9c0,1.8,1.5,3.3,3.3,3.3c1,0,1.9-0.5,2.5-1.2l5.6,2.9c-0.1,0.2-0.1,0.5-0.1,0.8c0,1.8,1.5,3.3,3.3,3.3
	s3.3-1.5,3.3-3.3C17.9,12.9,16.4,11.4,14.6,11.4z M14.6,1.5c1,0,1.8,0.8,1.8,1.8S15.6,5,14.6,5c-1,0-1.8-0.8-1.8-1.8
	S13.6,1.5,14.6,1.5z M3.3,10.7c-1,0-1.8-0.8-1.8-1.8c0-1,0.8-1.8,1.8-1.8C4.2,7.2,5,8,5,9C5,9.9,4.2,10.7,3.3,10.7z M14.6,16.4
	c-1,0-1.8-0.8-1.8-1.8c0-1,0.8-1.8,1.8-1.8c1,0,1.8,0.8,1.8,1.8C16.4,15.6,15.6,16.4,14.6,16.4z"/>
</svg>