<svg xmlns="http://www.w3.org/2000/svg" viewBox="0 0 18.7 17.8"><path d="M18.6 6.9c0-.1 0-.3-.1-.4-.1-.1-.3-.2-.4-.2h-6.3L9.8.4c0-.3-.2-.4-.5-.4-.2 0-.4.2-.5.4l-2 5.9H.5c-.3 0-.5.2-.5.5 0 .2.1.3.2.4L5.4 11l-2 6.1v.4l.3.3h.2c.1 0 .2 0 .3-.1L9.3 14l5.1 3.8c.1.1.2.1.4.1.1 0 .3-.1.3-.2.1-.1.1-.3.1-.5l-2-6.1 5.1-3.8c.3-.1.3-.3.3-.4zm-6.2 3.5c-.2.2-.3.4-.2.6l1.6 5-4.1-3c-.1-.1-.2-.1-.3-.1-.1 0-.2 0-.3.1L5 16l1.6-5c.1-.2 0-.5-.2-.6l-4.1-3h5.1c.2 0 .4-.1.5-.4l1.6-4.8L10.9 7c.1.2.3.4.5.4h5.1l-4.1 3z"/></svg>