<?xml version="1.0" encoding="UTF-8"?>
<svg width="21px" height="20px" viewBox="0 0 21 20" version="1.1" xmlns="http://www.w3.org/2000/svg" xmlns:xlink="http://www.w3.org/1999/xlink">
    <g id="Symbols" stroke="none" stroke-width="1" fill="none" fill-rule="evenodd">
        <g id="Icon/Verified-Solid" fill-rule="nonzero">
            <g id="Icon/Verified">
                <path d="M9.50864047,0.464682481 C9.19785576,0.704464217 8.94490339,0.996031665 8.70526451,1.28412689 C8.22602147,1.86041655 7.77535205,2.39851177 7.42037299,2.53918636 C7.06540039,2.67996017 6.3552902,2.60168636 5.59810184,2.51537684 C5.21952517,2.47271811 4.82875902,2.43700383 4.43410219,2.47767843 C4.03946262,2.51736097 3.61963784,2.64732128 3.29620144,2.95396809 C2.97275304,3.2605157 2.83341684,3.66071409 2.78750434,4.03839265 C2.7416095,4.4160712 2.77418489,4.79047595 2.81502517,5.15367038 C2.89672259,5.88005924 2.96996544,6.5611108 2.81930096,6.89980126 C2.66863966,7.23839252 2.10340923,7.66666631 1.49695796,8.11974169 C1.19372355,8.34622977 0.885291223,8.58452341 0.631783892,8.8797615 C0.378259201,9.17490037 0.174817344,9.54990036 0.169213376,9.98273764 C0.163618138,10.4155749 0.35735067,10.7902773 0.603235183,11.0846225 C0.849119796,11.3790669 1.15212028,11.6168646 1.44950648,11.8424598 C2.04426141,12.2933526 2.59735435,12.7179558 2.73926059,13.056051 C2.88116703,13.3941462 2.79176257,14.075297 2.69127845,14.8019835 C2.64102746,15.1652771 2.59653738,15.5405747 2.63266932,15.9181541 C2.66878341,16.2956342 2.79814491,16.696031 3.11366553,17.0015866 C3.42918784,17.3070429 3.84496977,17.4350191 4.23856489,17.4736103 C4.63216002,17.5123008 5.0257344,17.4736103 5.40544391,17.4309516 C6.16486313,17.342658 6.87701329,17.2625984 7.2283862,17.4021818 C7.57971545,17.5416659 8.01650928,18.0774794 8.48085728,18.6520825 C8.7130403,18.9394833 8.95956609,19.2313484 9.26416528,19.4700388 C9.56876447,19.7087293 9.95511961,19.8987094 10.4069182,19.8978228 C10.8587466,19.8971221 11.2525987,19.7061499 11.5633834,19.4663682 C11.874185,19.2265865 12.126807,18.9329357 12.366428,18.6448405 C12.8456701,18.0685508 13.2985709,17.530158 13.6535322,17.3893842 C14.0085054,17.2486104 14.7186214,17.3268842 15.4758039,17.4131937 C15.8543942,17.4558524 16.2455023,17.4935508 16.6401521,17.4538683 C17.034784,17.4141857 17.4523941,17.2846223 17.7758395,16.9779754 C18.0992721,16.6713286 18.2408405,16.2707334 18.2867492,15.8931541 C18.3326421,15.5154755 18.2975032,15.139285 18.2566699,14.7760906 C18.1749933,14.0497018 18.1017294,13.368551 18.252404,13.0298605 C18.4030647,12.6912693 18.968643,12.265178 19.5750954,11.8121026 C19.8783295,11.5856146 20.1864138,11.3452376 20.4399386,11.0500987 C20.6934456,10.7548606 20.8972184,10.381944 20.9028225,9.94900748 C20.9083781,9.5161702 20.7147035,9.14156704 20.4688186,8.84722181 C20.2229337,8.55287659 19.9221281,8.31458295 19.6247601,8.08908692 C19.0299873,7.63809488 18.4743504,7.21180522 18.3324447,6.87370999 C18.1905369,6.53551556 18.2821768,5.85416638 18.382653,5.12747991 C18.4328812,4.76408706 18.4751629,4.38918629 18.4390518,4.01170614 C18.4029209,3.63402759 18.273904,3.23571411 17.9583861,2.93025777 C17.6428584,2.62480144 17.2267552,2.49484113 16.833155,2.45624986 C16.4395559,2.41755938 16.048534,2.45624986 15.6688208,2.50089271 C14.9093773,2.58918636 14.1972514,2.66924588 13.8458784,2.52966255 C13.494549,2.39017843 13.0555252,1.85456338 12.591177,1.27996022 C12.3590124,0.992658649 12.1146979,0.700495963 11.8100997,0.461805497 C11.5055005,0.22311503 11.1166007,0.0314483717 10.6647853,0.0322395666 C10.2129639,0.0318451971 9.81944204,0.224900745 9.50864047,0.464682481 Z" id="Shape" fill="#4D8055"></path>
                <polygon id="Path" fill="#FFFFFF" points="14.6642087 6.5782735 9.0639519 12.4995268 6.2135341 9.80322714 5.46027065 10.5992212 9.10675041 14.0488938 15.4602707 7.33153694"></polygon>
            </g>
        </g>
    </g>
</svg>