<?xml version="1.0" encoding="UTF-8"?>
<svg width="21px" height="20px" viewBox="0 0 21 20" version="1.1" xmlns="http://www.w3.org/2000/svg" xmlns:xlink="http://www.w3.org/1999/xlink">
    <g id="Icon/Verified" stroke="none" stroke-width="1" fill="none" fill-rule="evenodd">
        <g fill="#4D8055" fill-rule="nonzero">
            <polygon id="Path" points="14.7939914 6.5782735 9.72322974 11.939682 7.14231428 9.49831306 6.46027065 10.2190472 9.76198173 13.3425589 15.514787 7.26031712"></polygon>
            <path d="M10.6647743,0.0311507527 C10.2129639,0.0318451971 9.81944204,0.224900745 9.50864047,0.464682481 C9.19785576,0.704464217 8.94490339,0.996031665 8.70526451,1.28412689 C8.22602147,1.86041655 7.77535205,2.39851177 7.42037299,2.53918636 C7.06540039,2.67996017 6.3552902,2.60168636 5.59810184,2.51537684 C5.21952517,2.47271811 4.82875902,2.43700383 4.43410219,2.47767843 C4.03946262,2.51736097 3.61963784,2.64732128 3.29620144,2.95396809 C2.97275304,3.2605157 2.83341684,3.66071409 2.78750434,4.03839265 C2.7416095,4.4160712 2.77418489,4.79047595 2.81502517,5.15367038 C2.89672259,5.88005924 2.96996544,6.5611108 2.81930096,6.89980126 C2.66863966,7.23839252 2.10340923,7.66666631 1.49695796,8.11974169 C1.19372355,8.34622977 0.885291223,8.58452341 0.631783892,8.8797615 C0.378259201,9.17490037 0.174817344,9.54990036 0.16909517,9.98273764 C0.163618138,10.4155749 0.35735067,10.7902773 0.603235183,11.0846225 C0.849119796,11.3790669 1.15212028,11.6168646 1.44950648,11.8424598 C2.04426141,12.2933526 2.59735435,12.7179558 2.73926059,13.056051 C2.88116703,13.3941462 2.79176257,14.075297 2.69127845,14.8019835 C2.64102746,15.1652771 2.59653738,15.5405747 2.63266932,15.9181541 C2.66878341,16.2956342 2.79814491,16.696031 3.11366553,17.0015866 C3.42918784,17.3070429 3.84496977,17.4350191 4.23856489,17.4736103 C4.63216002,17.5123008 5.0257344,17.4736103 5.40544391,17.4309516 C6.16486313,17.342658 6.87701329,17.2625984 7.2283862,17.4021818 C7.57971545,17.5416659 8.01650928,18.0774794 8.48085728,18.6520825 C8.7130403,18.9394833 8.95956609,19.2313484 9.26416528,19.4700388 C9.56876447,19.7087293 9.95511961,19.8987094 10.4069182,19.8978197 C10.8587466,19.8971221 11.2525987,19.7061499 11.5633834,19.4663682 C11.874185,19.2265865 12.126807,18.9329357 12.366428,18.6448405 C12.8456701,18.0685508 13.2985709,17.530158 13.6535322,17.3893842 C14.0085054,17.2486104 14.7186214,17.3268842 15.4758039,17.4131937 C15.8543942,17.4558524 16.2455023,17.4935508 16.6401521,17.4538683 C17.034784,17.4141857 17.4523941,17.2846223 17.7758395,16.9779754 C18.0992721,16.6713286 18.2408405,16.2707334 18.2867492,15.8931541 C18.3326421,15.5154755 18.2975032,15.139285 18.2566699,14.7760906 C18.1749933,14.0497018 18.1017294,13.368551 18.252404,13.0298605 C18.4030647,12.6912693 18.968643,12.265178 19.5750954,11.8121026 C19.8783295,11.5856146 20.1864138,11.3452376 20.4399386,11.0500987 C20.6934456,10.7548606 20.8972184,10.381944 20.9029391,9.94900748 C20.9083781,9.5161702 20.7147035,9.14156704 20.4688186,8.84722181 C20.2229337,8.55287659 19.9221281,8.31458295 19.6247601,8.08908692 C19.0299873,7.63809488 18.4743504,7.21180522 18.3324447,6.87370999 C18.1905369,6.53551556 18.2821768,5.85416638 18.382653,5.12747991 C18.4328812,4.76408706 18.4751629,4.38918629 18.4390518,4.01170614 C18.4029209,3.63402759 18.273904,3.23571411 17.9583861,2.93025777 C17.6428584,2.62480144 17.2267552,2.49484113 16.833155,2.45624986 C16.4395559,2.41755938 16.048534,2.45624986 15.6688208,2.50089271 C14.9093773,2.58918636 14.1972514,2.66924588 13.8458784,2.52966255 C13.494549,2.39017843 13.0555252,1.85456338 12.591177,1.27996022 C12.3590124,0.992658649 12.1146979,0.700495963 11.8100997,0.461805497 C11.5055005,0.22311503 11.1166007,0.0314483717 10.6647853,0.0322420225 L10.6647743,0.0311507527 Z M10.6532962,1.00287643 C10.8162515,1.00267849 10.9657902,1.06438484 11.1599221,1.21646816 C11.3540362,1.36855149 11.5670074,1.60773799 11.7865908,1.87946417 C12.2257574,2.42291653 12.6668219,3.11696412 13.4455947,3.4262895 C14.2243069,3.73551568 15.058041,3.54692442 15.7763237,3.46299585 C16.1354656,3.42132918 16.4655816,3.39751966 16.7164715,3.42232125 C16.9673624,3.44712283 17.117659,3.50664664 17.2314239,3.6170633 C17.3452007,3.72718234 17.4062562,3.8719244 17.4292751,4.11249979 C17.4523009,4.35317438 17.4243147,4.6692458 17.3767651,5.01279737 C17.2817255,5.70009893 17.0767642,6.49613064 17.3912989,7.24563458 C17.7058485,7.99513852 18.4248226,8.42609088 18.9873405,8.85267816 C19.2685905,9.0658726 19.5165339,9.27281703 19.6732442,9.46041623 C19.8299386,9.64801543 19.8923434,9.79226146 19.8903795,9.94841224 C19.8883484,10.104563 19.8221381,10.2507932 19.6605795,10.4389876 C19.4990031,10.6270829 19.2464426,10.8345233 18.959644,11.0487098 C18.3860647,11.477182 17.6551778,11.9097217 17.3212274,12.6602177 C16.9873158,13.4108129 17.1723773,14.2068446 17.2496302,14.8938485 C17.2882612,15.2374001 17.3077453,15.5511898 17.2784893,15.7919636 C17.2492334,16.0326382 17.1848187,16.179662 17.0681481,16.2901779 C16.9514943,16.4007929 16.7974418,16.4617056 16.5459249,16.4872017 C16.2943922,16.5129953 15.9670519,16.4872017 15.6089884,16.4495032 C14.8928615,16.368154 14.062178,16.1813485 13.2753804,16.493154 C12.4885888,16.805158 12.0309687,17.5018842 11.5777088,18.0468246 C11.3510967,18.3194436 11.1315571,18.5598206 10.9334837,18.7126976 C10.7354093,18.8654754 10.5835799,18.9251976 10.4206196,18.9254957 C10.2576633,18.9256936 10.1062615,18.8669635 9.91212954,18.7143841 C9.71801546,18.5623008 9.50504523,18.3232135 9.28546091,18.0514873 C8.84629327,17.5080349 8.4052291,16.8138881 7.62645602,16.5045628 C6.84774375,16.1953366 6.01366819,16.3817453 5.2953959,16.4658723 C4.93625088,16.507539 4.6064742,16.5333326 4.35557917,16.508531 C4.10468414,16.4837294 3.95438117,16.4242056 3.84062751,16.3136898 C3.72681958,16.2034715 3.66546373,16.0568445 3.64242662,15.8160707 C3.61940678,15.5754953 3.6474167,15.2594239 3.69493753,14.9157731 C3.78997821,14.2285708 3.99715121,13.4320431 3.68262107,12.6826383 C3.36809013,11.9332336 2.64723301,11.5047614 2.08471558,11.0781741 C1.80346549,10.8648805 1.55552314,10.657936 1.39881164,10.4703368 C1.24210004,10.2827376 1.18157742,10.1360114 1.18355613,9.97995986 C1.18562911,9.82380907 1.24956958,9.67787654 1.41114557,9.48978131 C1.57270439,9.30148767 1.82561341,9.09622974 2.11241201,8.88204324 C2.68597408,8.45347183 3.41687862,8.02113058 3.7508292,7.27053537 C4.08474089,6.51994016 3.90189259,5.72351163 3.82464269,5.03660689 C3.78600876,4.69305532 3.7639671,4.37738073 3.79321908,4.13670614 C3.82247106,3.89603154 3.88725578,3.75109107 4.00390865,3.64057521 C4.12057303,3.53005934 4.27462322,3.46904743 4.52613244,3.4435514 C4.77765882,3.41775775 5.1072221,3.4435514 5.4652824,3.48124982 C6.18138594,3.56259902 7.00953085,3.74761885 7.79632883,3.4356149 C8.58313783,3.12371015 9.04108989,2.42906732 9.49433194,1.88392845 C9.72096089,1.61150783 9.94050156,1.37103165 10.138575,1.21825388 C10.3366494,1.06547611 10.4903597,1.00327373 10.6533031,1.00287643 L10.6532962,1.00287643 Z" id="Shape"></path>
        </g>
    </g>
</svg>