<?xml version="1.0" encoding="utf-8"?>
<!-- Generator: Adobe Illustrator 24.2.1, SVG Export Plug-In . SVG Version: 6.00 Build 0)  -->
<svg version="1.1" id="Layer_1" xmlns="http://www.w3.org/2000/svg" xmlns:xlink="http://www.w3.org/1999/xlink" x="0px" y="0px"
	 viewBox="0 0 21.7 19.9" style="enable-background:new 0 0 21.7 19.9;" xml:space="preserve">
<style type="text/css">
	.st0{font-family:'PublicSans-Light';}
	.st1{font-size:13px;}
</style>
<path d="M21.3,14.7L13.9,1.8c-0.6-1.1-1.8-1.8-3-1.8c0,0,0,0,0,0C9.6,0,8.4,0.7,7.8,1.8C7.7,2,6.9,3.4,6,4.9C0.3,14.8-0.2,16,0,16.6
	l0,0c0.1,1.9,1.6,3.3,3.5,3.3h14.7c0,0,0,0,0.1,0c1.2,0,2.3-0.7,3-1.8C21.9,17,21.9,15.7,21.3,14.7z M20.4,17.7
	c-0.5,0.8-1.2,1.3-2.1,1.3H3.5c-1.4,0-2.5-1.1-2.5-2.5v-0.3c0.5-1.4,4.1-7.6,5.9-10.7C8.3,3,8.7,2.3,8.7,2.2C9.1,1.5,9.9,1,10.9,1
	c0,0,0,0,0,0c0.9,0,1.8,0.5,2.2,1.2l7.4,12.9C20.9,15.9,20.8,16.9,20.4,17.7z"/>
<text transform="matrix(1 0 0 1 9.3848 16.4102)" class="st0 st1">!</text>
</svg>
