<svg xmlns="http://www.w3.org/2000/svg" viewBox="0 0 23 20"><path d="M20.9 19.9h-19c-.7 0-1.3-.3-1.6-.9-.3-.6-.3-1.3 0-1.8L9.8.9c.3-.5.9-.9 1.6-.9.6 0 1.2.4 1.6.9l9.5 16.2c.3.6.3 1.3 0 1.8-.3.7-1 1-1.6 1zm-19.4-2c-.1.2 0 .3 0 .4 0 .1.1.2.4.2h19c.2 0 .3-.2.4-.2 0-.1.1-.2 0-.4L11.7 1.7c-.1-.2-.3-.2-.4-.2-.1 0-.3 0-.4.2L1.5 17.9zm9.9-4.4c-.4 0-.7-.3-.7-.7V7.1c0-.4.3-.7.7-.7.4 0 .7.3.7.7v5.7c0 .4-.3.7-.7.7zm0 2.9c-.2 0-.4-.1-.5-.2-.1-.1-.2-.3-.2-.5s.1-.4.2-.5c.3-.3.7-.3 1 0 .1.1.2.3.2.5s-.1.3-.2.5c-.2.1-.3.2-.5.2z" fill="#d83933"/></svg>