<?xml version="1.0" encoding="utf-8"?>
<!-- Generator: Adobe Illustrator 24.2.1, SVG Export Plug-In . SVG Version: 6.00 Build 0)  -->
<svg version="1.1" id="Layer_1" xmlns="http://www.w3.org/2000/svg" xmlns:xlink="http://www.w3.org/1999/xlink" x="0px" y="0px"
	 viewBox="0 0 616.1 46.7" style="enable-background:new 0 0 616.1 46.7;" xml:space="preserve">
<style type="text/css">
	.st0{fill:#989482;}
</style>
<g>
	<path class="st0" d="M48.5,39.2c0.7-0.1,1.7,0.1,1.9-0.5c-0.7,0.3-1.6,0.2-2.1,0.1C48.4,38.8,48.4,39,48.5,39.2z"/>
	<path class="st0" d="M48.3,38.6C48.3,38.7,48.3,38.7,48.3,38.6L48.3,38.6z"/>
	<path class="st0" d="M42.3,34.8c0.4,0,0.8-0.1,0.8-0.5c-0.6,0.1-1-0.1-1.4-0.2c0,0.5,0.7,0.3,1,0.5C42.6,34.8,42.2,34.5,42.3,34.8z
		"/>
	<path class="st0" d="M28.3,31.9c1.4,2.3,3.8,3.5,6.9,3.8c1.2,0.1,2,0,2.7,0.4c0.4,0,0.2-0.4,0.7-0.4c1.7,0.1,2.6-0.5,3.6-0.9
		c-1,0.1-2.1,0.4-2.7-0.2c-0.1,0.6,0.5,0.5,0.7,0.7c-1.5,0.4-2.6-0.1-3.6-0.7c-0.2,0.1,0.2,0.4-0.1,0.5c-3.8-0.4-8.4-1.5-8.1-5.6
		c-0.1,0.2-0.2,0.5-0.4,0.7c-1.9-1.4-4.8-4.6-5.1-7.9c-0.3-3.1,1.6-4.3,4.4-4c0.4,0.1,0.4,0.5,0.6,0.7c0.2-0.4,0.4-0.7,0.5-1.1
		c-3-1.3-6.1,1.3-6,4.1c0.1,4.2,3.5,7,5.6,9c-0.1,0.4-0.1,0.7-0.2,1.1C28,32.4,28,31.9,28.3,31.9z"/>
	<path class="st0" d="M27.3,6.5C25.4,9,24.7,13.7,25.1,18c0.7-0.2,0.4-1.5,0.4-2.1c-0.1-2.3,0.2-4.3,0.7-6
		C26.4,8.5,27.1,7.5,27.3,6.5z"/>
	<path class="st0" d="M44.2,33.9c-0.3-0.1-0.4-0.4-0.7-0.5C43.6,33.7,44,34.2,44.2,33.9z"/>
	<path class="st0" d="M51,44.1c1.4,2.4,6.3-0.5,4.1-2.4C56.4,43.6,52.7,45.3,51,44.1z"/>
	<path class="st0" d="M52.2,39.7c-0.4,0.5-1.4,0.2-1.7,0c-0.2,0.2,0.2,0.4,0.2,0.8C51.4,40.5,52.4,40.4,52.2,39.7z"/>
	<path class="st0" d="M58.8,34c0-0.2,0.3-0.1,0.3-0.4c-0.1-0.1-0.4-0.1-0.5,0C58.6,33.9,58.6,34,58.8,34z"/>
	<path class="st0" d="M48.2,37.3c-0.5,0.5-1.7,0.4-2.1-0.2c0,0.4,0.2,0.5,0.4,0.7C47.2,38,48.3,38,48.2,37.3z"/>
	<path class="st0" d="M54.3,46.2c-1.4,0.5-4.4,0.4-4.7-1.3c-0.1-0.7,0.3-2,0.7-2.5c0.2-0.2,1.1-0.8,1.7-1.1c0.7-0.2,1.8-0.2,2.4,0
		c-1-2.9-4.2-4-6.8-5c2.1,1.4,4.9,2.1,6.1,4.4c-1.8,0.1-2.9,0.8-3.9,1.7c-0.4-0.2-0.8-0.3-1.1-0.6c-0.1,0.8,0.5,0.8,1.1,0.9
		c-1,1.1-0.6,3.1,0.2,3.8h5c0.7-0.3,1.4-0.7,1.9-1.3C56,45.1,55.2,45.9,54.3,46.2z"/>
	<path class="st0" d="M63.9,42.9c0-0.2-0.1-0.4-0.2-0.5C63.7,42.6,63.5,43,63.9,42.9z"/>
	<path class="st0" d="M45.7,37.1c0.5-0.1,0.6-0.4,0.7-0.7c-0.7,0.3-1.5,0.1-2-0.2c0.1,0.8,0.8,0.6,1.5,0.7
		C45.9,36.9,45.7,36.9,45.7,37.1z"/>
	<path class="st0" d="M64.2,43.7c-0.1-0.3-0.5-0.3-0.7-0.5C63.5,43.5,63.9,43.6,64.2,43.7z"/>
	<path class="st0" d="M44.7,34.3c0.2,0.5,1.3,0.9,1.3,0.9C45.6,34.9,45.2,34.5,44.7,34.3z"/>
	<path class="st0" d="M62.3,41.4c0.7,0,1.3,0.4,1.6,0.5C63.8,41.3,62.9,41.1,62.3,41.4z"/>
	<path class="st0" d="M27.7,20.4c-0.2,2.1,0.4,4.8,1.1,6.1c0.2,0.5,0.5,1.4,1.1,1.4c-0.4-1.4-1.7-3.5-1.9-5.7c-0.2-2.7,1-5,3.8-4.4
		c0.5,0.3,0.7,0.9,1.1,1.3c0.3-0.6,0.7-1.1,0.9-1.7C31.2,15.6,28.1,17.6,27.7,20.4z"/>
	<path class="st0" d="M59.9,42.3c0.1,0.3-0.4,0-0.4,0.2c0.5,0.1,0.4,0.9,0.7,1.1c0.6-0.9,2,0.2,2.7,0c-0.8-0.3-1.6-0.6-2.6-0.7
		C60.1,42.8,60.3,42.3,59.9,42.3z"/>
	<path class="st0" d="M47.5,7L47.5,7c0.4,0.3,1.3,1,1.7,2.1c0.2,1,0.3,2.3-0.2,3c-0.1-0.8-0.1-1.3-0.5-2.2c-0.4-1-0.7-1.5-1.1-2
		c-1.7-2.1-6.4-1.3-8.1,0.2c2.1-0.8,4.8-1.7,6.9-0.6c1,0.6,1.7,2.1,1.9,3.4c0.1,2.3-1.6,3.6-3.2,4.4c0.2-0.3,0-0.7,0-1
		c-0.4-0.4-1.5-0.4-2.1-0.2c-1.7,0.4-2.8,2.2-3.3,3.5c0.1,0.3,0.7,0.4,0.6,0.7c-0.2-0.2-0.6-0.1-0.9-0.1c-1.4,0.8-0.5,2.6-0.8,4.3
		c-0.1,0.2-0.2,0.5-0.2,0.7c0,0.4,0.4,0.8,0.2,1.1c0.4,0.2,0.6,0.4,1,0.6c0.8,2.1,1.6,4.1,3,5.4c3.2,2.4,7.9,4.8,11.8,6.9
		c0.7,0.4,1.4,1.1,2.1,1.3c1,0.4,1.4-0.3,2.1-0.6c0.7,0.4,1.6,1,2.5,0.8c-1-0.2-2.3-0.4-2.1-1.6c-0.5,0-0.8,0.7-1.3,0.7
		c-0.5,0-1-0.4-1-0.9c0.1-1.1,1.7-0.8,2.2-1.4c-0.3,0.1-0.7,0.1-1.1,0.1c-0.2-0.2-0.1-0.7-0.2-0.9C56.5,34.5,56,34.4,56,34
		c0.2-0.6,0.6-1,1.3-1.1c0.4,0.2,0.5,0.7,0.8,0.9c0.3-0.1,0-0.4,0.1-0.8c-0.1-0.2-0.6,0.1-0.5-0.4c1.6-1.3,5.9-1.8,8.8-2
		c2-0.1,3.2,1,3.7,2.2c-1.9-1.1-5-1-7.4-0.7c-1.2,0.1-2.3,0-3.2,0.5c1-0.1,3.2,0.1,3.6,0.1c1,0,1.6-0.1,2.4,0.2h0.1
		c0.5,1.1,1.6,1.6,2.1,2.6c-1.3,1.5-4.4,1.6-4.5,3.9c1-2,3.6-2.3,5-3.9c0.7-0.5,1.7-0.8,2.1-1.7h0.6c0,0.1,0.5,0.1,0.5,0h0.1
		c0.2,0,0.3,0,0.3-0.2c-0.2-0.1-0.5-0.1-0.8-0.1c-0.3,0-0.7,0.1-0.8-0.1c0.1-0.1,0-0.3,0.2-0.5c0.1-0.2,0.1-0.4,0-0.5
		c-0.4-0.7-0.7-1-1.4-1.3c-0.9-0.5-1.6-0.8-3-0.7c-3,0.2-7.4,0.7-9.6,2.3c-1.4,1.1-2,2.7-2.8,3.7c-3.8-2.3-9.4-4.6-12.1-8.1
		c-1.4-1.7-2.5-4.4-1.5-7.1c0.3-0.2,0.4-0.7,0.7-0.9c0.1-0.4-0.1-0.4,0-0.7c1.4-1.3,2.4-2.9,4.3-3.6c0.6,0.5,1.7,0.4,2.4-0.2
		c1.6-1.1,3.3-4.5,2.4-6.7C49.5,8.8,49,7.8,47.8,7c-0.1-0.1-0.2-0.1-0.3-0.1c-0.2-0.1-0.4-0.2-0.6-0.2C47.1,6.7,47.2,6.9,47.5,7
		C47.4,7,47.4,7,47.5,7z M67.8,34.5c-0.7-0.2-0.9-0.8-1.3-1.3C67.3,33,68.1,33.7,67.8,34.5z M54.3,35.8c0.4-0.6,0.9-1,1.1-1.7
		c0.3,0.4,0.6,0.8,1.4,0.7c0.3,1.3-0.9,1.6-2.1,1.6c0,0.7,0.7,0.4,1.3,0.4c-0.1,0.4,0.2,0.5,0.2,0.8c0.7,0.4,1.2,0.2,1.7-0.1
		c-1.1,1.4-2.9-0.2-3.9-0.8v-0.2H54L54.3,35.8z"/>
	<path class="st0" d="M71,34.6c0.4,0.1,0.5-0.4,0.7-0.2c-0.7,0.5-1.3,1-2.1,1.4c-0.8,0.4-1.8,0.5-2.4,1.1c0.9-0.1,1.7-0.5,2.6-1
		c0.8-0.4,1.7-0.8,2.3-1.3c0.3-0.2,0.5-0.7,0.8-0.7c1.3-0.4,2.2,0.4,3,0.8c-0.5-0.7-2-1.4-3.2-1.1c-0.2,0.1-0.5,0.4-0.7,0.5
		C71.7,34.2,70.9,34,71,34.6z"/>
	<path class="st0" d="M68,46.5c-0.4-0.3-0.8-0.7-1.3-0.9C66.9,46,67.5,46.6,68,46.5z"/>
	<path class="st0" d="M63.1,44.1c0.2,0.3,0.5,0.7,0.4,1c-1,0.2-2.4,0.2-2.9-0.5c-0.7-0.1-2,0.2-2.6-0.2c-0.2,0.2-0.7,0.4-0.8,0.7
		c0.4,0.2,0.7-0.4,1.1-0.4c0.8,0.2,1.9,0.6,2.4,0.2c0.6,0.7,1.7,0.4,2.2,0.9c-0.1,0.4,0.1,0.6,0.2,0.8l0.1,0.1v-0.1
		c-0.1-0.8,0.2-1.1,0.7-1.4c0.7,0.5,1.7,0.7,2.6,0.7c-0.8-0.4-1.8-0.7-2.6-1.1C63.6,44.7,63.4,44,63.1,44.1z"/>
	<path class="st0" d="M45.2,43.9c0.1,0.3-0.1,0.4-0.2,0.5c-1.2,0.8-3.1,1.4-5,0.8c0.1-0.2,0.1-0.6,0.4-0.8c1.7-0.3,2.7-1.4,4.9-1
		c0-0.2,0-0.4,0.2-0.5c1.4-0.7,3-1.2,4.2-2.1C48.9,41,48,41,47.2,40.6c-0.1,0.7,0.5,0.6,0.7,0.9c-1.3,0.5-3.2,1.9-4.5,0.7
		c-0.1,0.4,0.1,0.4,0.1,0.7c-1.6,0.8-4,1.6-6,0.7c0.1-0.3,0.2-0.5,0.4-0.6c2.1-0.1,3.3-1.7,5.5-1.1c0.1-0.2,0.2-0.5,0.4-0.6
		c1.3-0.2,1.9-1.1,3.5-1.1c-0.1-0.5,0.4-0.4,0.4-0.7c-0.5,0.1-1.2,0.2-1.9,0.2c-0.9-1,0.8-1.1,1.1-1.7c-0.7,0.5-1.8,0.5-3,0.5
		c0.1,0.8-0.8,0.7-1.1,1.1c0.8-0.2,1.7-0.8,2.7-0.5c-0.1,0.4,0.1,0.9,0.4,1.1c-0.9,0.6-2.3,1-3.6,0.7c-0.2-0.1,0.1,0.5-0.2,0.4
		c-2,0.6-4.4,2-6.9,1.1c-0.1,0.2,0.2,0.1,0.2,0.4c-0.8,0.1-1-0.7-0.6-1.1c2.8-0.1,4.4-1.3,7.3-1.3c0.1-0.3,0.6-0.6,0.5-0.8
		c-0.5,0.3-1.5,0.5-2.1,0.2c0.1,0.2,0.1,0.3-0.1,0.5c-2.1,0.5-4.3,1.3-7,1c-0.3-0.4-1-0.7-1.3-0.7c0-0.2,0.1-0.5,0.2-0.6
		c3.2,0.2,5.3-0.7,8.1-0.7c1-1.4,3.8-0.9,5-2.1c-1.1,0.2-1.9,0.8-3,0.4c-0.6,1-2.6,1.4-3.5,0.5c-0.2,0.4,0.4,0.5,0.2,0.7
		c-3.3,0.7-8.9,1.9-10-1.9c0.1,0,0.1-0.1,0.2-0.2c2.6,1.5,6.2,1,9.6,0.8c0.2-0.1,0.1-0.5,0.4-0.5c1.1-0.1,1.7-0.7,3-0.5
		c0.6-0.4,1.4-0.7,2.2-0.8c0-0.2,0-0.4,0.1-0.5c-0.7,0-1.3,0-1.7-0.2c0.1,0.5,0.9,0.3,1.1,0.7c-1,0.4-2.4,0.7-3.3,0.1
		c-0.3,0.2,0.4,0.5,0.2,0.7c-0.8,0.4-2.1,0.6-3,0.2c-0.2,0.1,0,0.5-0.2,0.5c-4.4,0.4-9.6,0.5-10.1-4.1c-0.4-0.1,0,0.5-0.2,0.6
		c-3.4-1.3-6.2-3.4-7.8-6.4c-0.2-0.4-0.3-0.8-0.4-1.3c-0.1-0.5-0.1-1.2-0.4-1.3c-0.2,1.9,0.2,3.5,1.3,4.7c0.2,0.2,0.9,1,1,1.1
		c1.7,1.8,4.4,3,6.3,4.1c-0.2,1,0.5,1.5,0.4,2c-3.3-0.4-7.3-1.7-9.6-3.7c-0.8-0.8-1.2-2-1.3-3.3c0,0.1,0,0.2-0.2,0.2
		c-0.3-0.2-1-0.7-1.1-0.8c-1.4-1.1-2.9-2.9-4.1-4.9c-1.4-2.4-3.9-7.6-0.7-9.4c0.1,4.2,1.9,7.8,3.7,10.6c0.7,1.1,1.5,2.4,2.7,2.9
		c0-0.2,0.2-0.4,0.2-0.7c-4.1-3.8-8.7-14-4.3-20.5c1.8-2.7,4.9-4.4,9-3.7c0.8,0.1,0.4,0.2,0.2,0.6c-0.7,1.2-1.3,2.4-1.7,4
		c-0.5,0.4-1.1,0.6-1.4,1.1c0.5-0.1,0.8-0.7,1.4-0.5c-0.5,3.4-0.4,7.6,0.4,10.6c0.2,0.7,0.1,1.7,0.7,2.1c0.1-0.1,0.3-0.1,0.4-0.2
		c-0.9-3.2-1.9-7.3-1.3-11.5c0.8-4.5,4.4-8.4,9-9c1.9-0.2,3.8,0.4,5,1.5c-1.4,0.3-2.5,1.8-3.9,2.2c-0.8,0.3-1.7,0.2-2.3,0.7
		c-0.6,0.4-0.8,1-1.3,1.7c1.1-1,2.1-2.3,4.1-1.7c1-1,2.1-1.8,3.3-2.6h0.1C35.2,2,35.5,2,35.6,1.7c-1.5-1-3.2-1.7-5.2-1.7
		c-3,0.1-5.2,1.3-6.7,2.5c-0.1,0.1-0.1,0.1-0.1,0.1C22.5,2.2,21.4,1.8,20,2c-3.9,0.6-7.1,4-8.4,7.1c-6.2,0.8-9.7,7.5-7.6,14
		c-1.6,1.4-3.3,2.6-3.8,4.9c-0.1,0.4-0.1,0.5-0.1,0.8c-0.7,5.1,3.3,9.2,5.8,11.9c0.2-0.2,0.4-0.5,0.7-0.6c0.9,0.8,1.6,1.7,2.6,2.2
		c0.1,0.4,0.3,0.7,0.5,0.8c2.6,2,9.1,2.3,13.6,1.9c0.3,0.8,1.4,1.2,2.1,1.5h2.4c-0.1-0.1-0.2-0.1-0.2-0.1c-0.2-0.5-0.7-0.4-0.7-0.9
		c2.6-0.5,5.3-0.9,7.6-1.7c0.7,0.7,2.2,0,2.8,0.5c0.2,0.7-0.7,0.7-1.1,0.9c-1.1,0.4-2.3,1-3.7,1.4h1.6c0.6-0.2,1.3-0.4,1.8-0.6
		c0.5-0.2,1-0.6,1.5-0.7c0.8-0.1,1.6,0.4,2.5,0.1c0.1,0.4,0.3,0.6,0.4,1c-0.1,0.1-0.2,0.1-0.4,0.2h2.4c-0.2-0.1-0.4-0.4-0.5-0.6
		c1.3-0.2,2.3-0.7,3.2-1.3c1.7,0.8,2.6-0.8,3.6-1.5C47.6,43.6,46.5,45,45.2,43.9z M18.1,33.6c0.1,0,0.2,0,0.2,0.1
		c1.6,1.6,3.9,2.5,6.6,3c0.9,0.2,2,0.2,2.8,0.5c0.4,0.2,0.7,0.7,1.1,0.8c-0.1,0.6,0.5,0.7,0.5,1.3c-4.2,0.3-11.2,0-11.3-5.5
		C18,33.6,18.1,33.6,18.1,33.6z M11.2,9.7c-0.1,1.1-0.5,3-0.2,4.5c-4.3,2.5-1.4,9,0.7,11.9c0.5,0.8,1.3,1.6,2.1,2.3
		c1,1,1.9,1.9,3.2,2.1c-0.1,0.5-0.4,0.8-0.5,1.3c-0.3,1.6,0.8,2.6,1.1,3.6C13.2,34.2,10,31,7.5,27.5c-1.1-1.6-2.7-3.8-3.2-6.1
		C3.4,15.6,5.9,10.7,11.2,9.7z M8.5,39.8c-2.2-1-4.2-2.5-5.6-4.4c-1.3-1.7-2.7-3.9-2.3-6.9c0.2-1.8,1.4-4.2,3.7-3.7
		c0.5,1.2,0.8,2.6,1.4,3.6c0.1,0,0.1-0.1,0.1-0.1c0-0.4,0.3-0.5,0.4-0.8c2.8,3.9,6.1,7.2,11.3,8.7c-0.1,0.5,0.1,0.8,0.1,1.3
		c-0.4,0.1-2.3-0.6-2.9-0.8c-2.7-1-5.4-2.6-7.2-4.8c-0.7-0.9-1-2-1.6-3.2c-0.8,1.1,0,3,0.7,4.1c2.1,2.8,7,4.8,10.9,5.5
		c0.3,1.3,1.1,2,2.2,2.5c0.1,0.9,0.6,1.4,0.8,2.1c-3-0.3-6.5-1.1-9-2C10.6,40.4,9.4,40.2,8.5,39.8z M21.4,44.8
		c-2.8,0.1-5.2-0.4-7.8-1.1c-1.7-0.4-3.8-1.3-4.3-2.6c0.1,0,0.1-0.1,0.2-0.1c2.3,0.8,5.1,1.6,7.9,2c2.3,0.3,4.2,0.4,6,1.3
		C23,44.9,22.1,44.8,21.4,44.8z M21.3,41.1c-0.5-0.5-0.8-1.3-1.1-2c0.1-0.1,0.1-0.1,0.1-0.2c1.7,0.7,3.6,1.1,5.8,1.3
		c1,0.1,2.3-0.2,3.4,0c0.4,0,0.7,0.4,1.1,0.5c0.5,0.2,1.2,0.1,1.5,0.5c-0.4,0.6-1.1,0.5-1.7,0.6C27.4,42.3,23.4,43,21.3,41.1z
		 M27.9,45c-1.7,0.1-3.1-0.5-4.2-1.5c0.2-0.8,1.2-0.5,1.7-0.5c2.2-0.1,4.8-0.6,6.6-1.1c0.4,0.2,1,0.7,1.6,0.8
		c0.4,0.1,0.9-0.2,1.1,0.4C32.9,43.9,30.3,44.8,27.9,45z"/>
	<path class="st0" d="M19.5,22.4c1.4-0.8-0.2-2.4-0.8-3.9c-1-2.5-1.2-6.1-0.5-8.4C16.4,14,17.9,19.4,19.5,22.4z"/>
	<path class="st0" d="M46.3,46.3c-0.2,0.1-0.5,0.2-0.8,0.3h2.3c0.1-0.1,0.2-0.2,0.2-0.4c-0.7,0.1-1-0.2-1.5-0.4
		C46.6,46.2,46.5,46.3,46.3,46.3z"/>
	<path class="st0" d="M59.5,46.2c-0.2,0.2-0.4,0.3-0.7,0.4h0.5c0.2-0.3,0.4-0.6,0.5-1C59.5,45.6,59.6,46,59.5,46.2z"/>
	<path class="st0" d="M68.9,44.4c0.1,0.4,0.4,0.5,0.7,0.6C69.5,44.7,69.1,44.6,68.9,44.4z"/>
	<path class="st0" d="M76.3,35.2c1.2,1.1,0.2,5-1.3,4.5v-0.1c0.7-2.7-1.6-2.1-3.9-2.2c-1.3-0.1-2.9-0.2-3.8-0.1
		c-0.8,0.1-2.2,0.5-2.1,1.3c1,0.2,2-0.5,3.2-0.6c1.6-0.1,3.6,0.2,3.6,0.2c0.9,0.2,1.8,0.3,2.7,0.4c0.2,0.1-0.1,0.2-0.2,0.2
		c-0.2,0.1-2-0.2-3.8-0.5c-1-0.2-2.7-0.3-3.6,0.1c-0.7,0.2-1,0.7-1.6,0.6c-0.4-0.1-0.5-0.5-0.9-0.6c-0.5,1.2,0.8,1.5,1.5,2
		c1.4,1,2.1,3.1,3.6,3.9c1.4-1.9,3.8-2.7,5.5-4.2c0.1,0.1,0.4,0.1,0.7,0.1C76.9,39.2,77.8,35.8,76.3,35.2z"/>
	<path class="st0" d="M67.1,44.1c-0.1,0.4-0.2,0.8,0.1,1c-0.1,0.1-0.2,0.1-0.2,0.2c0.3,0.1,0.8,0.8,1.1,0.4
		C67.3,45.4,67.3,44.5,67.1,44.1z"/>
	<path class="st0" d="M68,46.2c0,0.2,0.1,0.3,0.1,0.4h0.3C68.3,46.5,68.2,46.3,68,46.2z"/>
	<path class="st0" d="M27.7,17.6c0.7-0.5,0.4-1.6,0.4-2.5c0-0.8,0-1.4,0.1-2c0.1-0.8,0.4-3,0.8-4.2c0.5-1.5,1.6-2.8,2.1-4.1
		c-1.9,2-2.7,5.2-3.1,7.8C27.8,14,27.4,16.1,27.7,17.6z"/>
	<path class="st0" d="M37.3,30c-0.3,1.1,0.6,1.6,1.3,1.9C38,31.3,37.4,30.9,37.3,30z"/>
	<path class="st0" d="M37,25.4c-0.2,0-0.1,0.1-0.1,0.1c2.1,0.5,2.7,3.4,2.7,3.4s0.1,0.1,0.1,0c0-0.1,0-0.4,0-0.4S39.1,25,37,25.4z"
		/>
	<path class="st0" d="M35.7,25.9c-0.5-0.4-0.9,0.8-1.3,1.1c-0.1-0.2-0.2-0.5-0.6-0.6c0.1,0.4,0.5,0.6,0.6,1c0.2,1.2,0.5,2.1,1.1,2.8
		c0.4,0.4,0.9,1,1.4,0.9c-0.8-1.1-1.9-2-2.3-3.5C34.9,26.9,35.1,26.3,35.7,25.9z"/>
	<path class="st0" d="M36.9,34.1c0.2-0.1,0-0.5,0.4-0.4c1.7-0.1,2.6,0.4,4-0.2c-1.4,0.4-2.3-0.7-3-1.1c0.1,0.5,0.5,0.7,0.8,1
		c-1.4,0.2-2.5-0.4-3-1.1c-0.3,0.4,0.4,0.7,0.2,1c-2.4-1-5.6-3-4.5-6.2C29.6,30.6,34,33.4,36.9,34.1z"/>
	<path class="st0" d="M44.1,5.6c-1,0.2-2,0.5-3,0.8c-0.3-0.1-0.9-0.5-1.3-0.4c0.3,0.2,0.8,0.2,0.9,0.5c-1.4,0.8-3.2,1.6-4.3,3
		c-1.4,1.7-2.8,4-3,6.3c-0.1,0.4-0.2,1.2,0.4,1.3c0.2-2.3,0.7-3.9,1.7-5.5c1.9-3.2,4.8-5.4,9.7-5.4c0.4,0,1.3,0.4,0.9-0.4
		c0,0-0.6-0.7-1.4-1.6c-1.2-1.4-3-2.4-5.6-2.6c-0.9-0.1-2-0.1-2.6,0.4C40.4,1.6,43.1,2.9,44.1,5.6z"/>
	<path class="st0" d="M36.7,17c-1-0.1-1.9,0.1-2.5,0.5c-1.5,1.8-2,6-0.8,8.6c0.1-1.1-0.4-2.6-0.4-4c0.1-2.5,1.2-4.7,3.9-4.4
		c0.7,0.1,1,0.4,1.5,0.7C38.8,17.6,37.6,17.1,36.7,17z"/>
	<path class="st0" d="M42.4,32.2c-0.4,0.8-1.6,0.6-2.1,0c0.1,1,1.6,1.1,2.1,0.4c0.2,0.1,0.4,0.4,0.7,0.5
		C43,32.7,42.4,32.6,42.4,32.2z"/>
	<path class="st0" d="M6.2,42.2c-0.1-0.3,0.1-0.7-0.4-0.9c-0.2,0.8-0.1,1.5,0.2,2.1c0.5,1.1,1.3,2.3,2.1,3.3h4.1
		c-1.6-0.5-3-1.1-3.8-1.9C7.6,44,6.6,43.3,6.2,42.2z"/>
	<path class="st0" d="M42.2,32c-0.5-0.5-0.8-1.1-1.3-1.7c-0.4,0.5,0.1,0.8,0.4,1C41.8,31.6,41.8,32.3,42.2,32z"/>
	<path class="st0" d="M32.9,12.6c0.6-2.3,1.4-3.1,1.9-3.8c0.7-0.8,1.1-1.3,1.9-1.9c0.2-0.1,0.7-0.2,0.5-0.5c-2,0.8-3.5,3.3-4.2,5.2
		c-0.3,0.6-0.5,1.4-0.7,2.2s-0.5,1.8-0.2,2.6c0.4-0.4,0.2-1.1,0.4-1.7C32.5,14,32.7,13.3,32.9,12.6z"/>
	<path class="st0" d="M110.7,11.8c3.1,0.4,3.6,1,3.7,3.4c0.1,1.3,0.1,1.8,0.1,5v10.5L98.6,11.4h-5.2v0.4c1.4,0.3,2.5,0.6,3.4,1.7
		c0.4,0.4,0.5,0.9,0.5,1.6v11c0,3.5-0.1,4.9-0.1,5.8c-0.1,2.2-0.7,2.5-3.4,3.1v0.4h8.4V35c-2.9-0.5-3.5-1-3.6-3.1
		c0-1.2-0.1-2.3-0.1-5.9V15.4l16.6,20.5h0.6V20.2c0-3.2,0.1-3.9,0.1-4.8c0.1-2.5,0.3-3,2.9-3.6v-0.4h-8V11.8z"/>
	<path class="st0" d="M138.3,31.2c-2.5-6.9-4.9-13.7-7.2-20.4l-0.5,0.1l-7.7,19.9c-1.4,3.5-2,3.7-4.1,4.1v0.4h7.7V35
		c-2.8-0.6-3.4-0.8-2.6-3.3c0.6-1.8,1.3-3.7,2.1-6h7.4c1.1,3.1,2,5.8,2.5,7.4c0.4,1.3-0.1,1.6-2.1,2v0.4h8.3V35
		C139.9,34.4,139.4,34.4,138.3,31.2z M126.4,24.5c1.1-3.1,2.3-6.3,3.4-9.4l3.3,9.4H126.4z"/>
	<path class="st0" d="M159.7,10.7c-0.3,0.5-0.7,0.6-1.7,0.6h-15.7c-1.3,0-1.6-0.1-2-0.6h-0.4c-0.1,1.9-0.3,3.8-0.6,5.8h0.6
		c0.3-1,0.5-1.7,1-2.6c0.5-1,0.9-1.6,2.9-1.6h4.7v19c0,2.7-0.1,3.1-3.4,3.6v0.4h9.5V35c-3.3-0.4-3.5-0.9-3.5-3.6v-19h4.6
		c2.2,0,2.8,0.6,3.4,2.1c0.3,0.6,0.4,1.2,0.7,2.2l0.6-0.1c-0.2-2-0.3-4.2-0.3-5.7H159.7z"/>
	<path class="st0" d="M162.8,11.8c3,0.5,3.2,0.7,3.2,3.7v15.7c0,2.8-0.3,3.2-3.2,3.7v0.4h9.1V35c-3-0.6-3.3-0.9-3.3-3.7V15.5
		c0-3.1,0.3-3.3,3.3-3.7v-0.4h-9.1V11.8z"/>
	<path class="st0" d="M186.8,10.8c-7.4,0-12,6.2-12,12.9c0,6.9,5.2,12.2,11.7,12.2c6.6,0,12-5.1,12-12.9
		C198.5,15.8,193,10.8,186.8,10.8z M187.3,35.1c-5.6,0-9.4-5.2-9.4-12.4c0-7.2,3.8-11,8.1-11c5.3,0,9.2,4.6,9.2,12.5
		C195.3,31.3,191.7,35.1,187.3,35.1z"/>
	<path class="st0" d="M218,11.8c3.1,0.4,3.6,1,3.7,3.4c0.1,1.3,0.1,1.8,0.1,5v10.5l-15.9-19.4h-5.2v0.4c1.4,0.3,2.5,0.6,3.4,1.7
		c0.4,0.4,0.5,0.9,0.5,1.6v11c0,3.5-0.1,4.9-0.1,5.8c-0.1,2.2-0.7,2.5-3.4,3.1v0.4h8.4V35c-2.9-0.5-3.5-1-3.6-3.1
		c0-1.2-0.1-2.3-0.1-5.9V15.4l16.6,20.5h0.6V20.2c0-3.2,0.1-3.9,0.1-4.8c0.1-2.5,0.3-3,2.9-3.6v-0.4h-8V11.8z"/>
	<path class="st0" d="M245.5,31.2c-2.5-6.9-4.9-13.7-7.2-20.4l-0.5,0.1l-7.7,19.9c-1.4,3.5-2,3.7-4.1,4.1v0.4h7.7V35
		c-2.8-0.6-3.4-0.8-2.6-3.3c0.6-1.8,1.3-3.7,2.1-6h7.4c1.1,3.1,2,5.8,2.5,7.4c0.4,1.3-0.1,1.6-2.1,2v0.4h8.3V35
		C247.1,34.4,246.7,34.4,245.5,31.2z M233.7,24.5c1.1-3.1,2.3-6.3,3.4-9.4l3.3,9.4H233.7z"/>
	<path class="st0" d="M265.4,33c-1,1.4-1.8,1.4-4,1.4c-0.6,0-1.8,0-2.5,0c-2.5,0-2.9-0.1-2.9-2.7V15.5c0-3,0.3-3.2,3-3.7v-0.4h-8.8
		v0.4c2.9,0.4,3.2,0.6,3.2,3.7v15.7c0,3-0.2,3.3-3.5,3.8v0.4h16.4c0.4-1.3,1.1-4.6,1.3-5.6l-0.5-0.1C266.6,31.1,266.1,32,265.4,33z"
		/>
	<path class="st0" d="M297.6,31.2c-2.5-6.9-4.9-13.7-7.2-20.4l-0.5,0.1l-7.7,19.9c-1.4,3.5-2,3.7-4.1,4.1v0.4h7.7V35
		c-2.8-0.6-3.4-0.8-2.6-3.3c0.6-1.8,1.3-3.7,2.1-6h7.4c1.1,3.1,2,5.8,2.5,7.4c0.4,1.3-0.1,1.6-2.1,2v0.4h8.3V35
		C299.2,34.4,298.8,34.4,297.6,31.2z M285.8,24.5c1.1-3.1,2.3-6.3,3.4-9.4l3.3,9.4H285.8z"/>
	<path class="st0" d="M321,33.6c-0.9-0.9-1.8-2.3-3.1-4.3c-1.1-1.7-2.8-4.5-3.5-5.7c2.7-1.2,4.7-3.3,4.7-6.3c0-2-0.9-3.7-2.3-4.6
		c-1.3-1-3.3-1.4-5.8-1.4h-8.8v0.4c3,0.4,3.2,0.7,3.2,3.6v15.9c0,2.9-0.3,3.2-3.2,3.7v0.4h9.1V35c-3-0.4-3.3-0.8-3.3-3.7v-7h1.6
		c1.9,0,2.3,0.2,3.3,1.9c1.3,2.2,3.1,5.2,4.3,6.9c1.5,2,2.2,2.4,5.3,2.6c0.3,0,1.1,0,1.4,0l0.1-0.4C322.6,34.9,322,34.6,321,33.6z
		 M310.4,23.5h-2.3v-9.4c0-1.2,0.1-1.5,0.4-1.7c0.3-0.2,1-0.3,2.3-0.3c3.1,0,5.4,1.8,5.4,5.8c0,2.2-0.5,3.7-2,4.8
		C313.2,23.5,312.2,23.5,310.4,23.5z"/>
	<path class="st0" d="M337.8,35.1c-6.6,0-10.3-5-10.3-12.3c0-5.8,3.1-11.1,9.7-11.1c1.4,0,3,0.2,4.2,0.6c2.1,0.8,2.6,2.4,3.3,4.7
		l0.6-0.1c-0.2-1.5-0.4-3.6-0.6-5.3c-1.2-0.1-3.4-0.8-6.4-0.8c-8.4,0-13.9,4.9-13.9,12.6c0,6.4,4.2,12.5,13.3,12.5
		c2.5,0,5.2-0.6,6.1-0.9c0.6-0.9,1.6-4.1,2-5.3l-0.6-0.2C343.6,32.7,341.9,35.1,337.8,35.1z"/>
	<path class="st0" d="M364.2,11.8c3.1,0.3,3.2,0.7,3.2,4.1v6h-13.1v-6c0-3.4,0.3-3.7,3.3-4.1v-0.4h-9.1v0.4c3,0.4,3.2,0.6,3.2,4.1
		V31c0,3.2-0.3,3.6-3.2,4v0.4h9.1V35c-2.9-0.4-3.3-0.8-3.3-4v-8.1h13.1V31c0,3.1-0.2,3.6-3.2,4v0.4h9.1V35c-2.9-0.4-3.3-0.6-3.3-4
		V15.9c0-3.3,0.3-3.7,3.3-4.1v-0.4h-9.1V11.8z"/>
	<path class="st0" d="M375.9,11.8c3,0.5,3.2,0.7,3.2,3.7v15.7c0,2.8-0.3,3.2-3.2,3.7v0.4h9.1V35c-3-0.6-3.3-0.9-3.3-3.7V15.5
		c0-3.1,0.3-3.3,3.3-3.7v-0.4h-9.1V11.8z"/>
	<path class="st0" d="M402.3,11.8c3.3,0.5,3.4,1,2.6,3.3c-1.7,4.8-4.6,12.6-6.1,16.4c-0.9-2.4-5.4-14.5-6.3-17.4
		c-0.4-1.4-0.1-1.8,2.3-2.3v-0.4h-8.7v0.4c2.4,0.4,2.9,0.7,4,3.6c2.4,6.8,5,13.7,7.4,20.6h0.5c2.8-7.2,6.7-17.2,7.9-20.1
		c1.3-3.2,1.7-3.7,4.2-4.1v-0.4h-7.8V11.8z"/>
	<path class="st0" d="M426.7,32.7c-0.9,1.4-1.4,1.7-3.2,1.7h-3.7c-2.1,0-3.1-0.1-3.1-2.6v-8.8h4.7c2.3,0,2.6,0.4,3.2,3h0.5v-7h-0.5
		c-0.4,2.5-0.8,3-3.3,3h-4.6v-8.6c0-1,0.1-1.1,1.1-1.1h4c2.2,0,2.6,0.1,3.3,1.1c0.4,0.6,0.9,2,1.1,2.9l0.5-0.1
		c-0.1-1.1-0.3-3.7-0.3-5c-0.7,0.1-1.8,0.1-5,0.1h-10.5v0.4c2.9,0.6,3,0.8,3,4v15.5c0,3-0.2,3.3-3.5,3.7v0.4h16.8
		c0.3-1.1,1-4,1.1-5.3l-0.5-0.1C427.7,31,427.3,31.9,426.7,32.7z"/>
	<path class="st0" d="M439,21.6c-2.9-1.7-4.5-2.8-4.5-5.7c0-2.2,1.3-4.3,4-4.3c3.4,0,4.5,2.1,5.1,4.7l0.6-0.1
		c-0.3-1.7-0.4-3.5-0.6-4.8c-0.8-0.1-2.2-0.6-4.5-0.6c-4.2,0-7,2.7-7,6.2c0,3.7,3,5.5,5.8,7.2c2.6,1.6,4.5,3.1,4.5,6
		c0,2.5-1.3,5-4.5,5c-3.8,0-5.5-3.1-6.1-5.4l-0.5,0.1c0.1,0.7,0.6,4,0.9,5c1.1,0.4,3.2,1.1,5.3,1.1c4.3,0,7.6-3,7.6-6.9
		C445.1,25.1,441.8,23.2,439,21.6z"/>
	<path class="st0" d="M472.8,35.1c-6.6,0-10.3-5-10.3-12.3c0-5.8,3.1-11.1,9.7-11.1c1.4,0,3,0.2,4.2,0.6c2.1,0.8,2.6,2.4,3.3,4.7
		l0.6-0.1c-0.2-1.5-0.4-3.6-0.6-5.3c-1.2-0.1-3.4-0.8-6.4-0.8c-8.4,0-13.9,4.9-13.9,12.6c0,6.4,4.2,12.5,13.3,12.5
		c2.5,0,5.2-0.6,6.1-0.9c0.6-0.9,1.6-4.1,2-5.3l-0.6-0.2C478.6,32.7,476.9,35.1,472.8,35.1z"/>
	<path class="st0" d="M501.7,31.2c-2.5-6.9-4.9-13.7-7.2-20.4l-0.5,0.1l-7.7,19.9c-1.4,3.5-2,3.7-4.1,4.1v0.4h7.7V35
		c-2.8-0.6-3.4-0.8-2.6-3.3c0.6-1.8,1.3-3.7,2.1-6h7.4c1.1,3.1,2,5.8,2.5,7.4c0.4,1.3-0.1,1.6-2.1,2v0.4h8.3V35
		C503.3,34.4,502.9,34.4,501.7,31.2z M489.9,24.5c1.1-3.1,2.3-6.3,3.4-9.4l3.3,9.4H489.9z"/>
	<path class="st0" d="M519.3,12.3c2.2,0,2.8,0.6,3.4,2.1c0.3,0.6,0.4,1.2,0.7,2.2l0.6-0.1c-0.2-2-0.3-4.2-0.3-5.7h-0.4
		c-0.3,0.5-0.7,0.6-1.7,0.6h-15.7c-1.3,0-1.6-0.1-2-0.6h-0.4c-0.1,1.9-0.3,3.8-0.6,5.8h0.6c0.3-1,0.5-1.7,1-2.6
		c0.5-1,0.9-1.6,2.9-1.6h4.7v19c0,2.7-0.1,3.1-3.4,3.6v0.4h9.5V35c-3.3-0.4-3.5-0.9-3.5-3.6v-19H519.3z"/>
	<path class="st0" d="M540.4,31.2c-2.5-6.9-4.9-13.7-7.2-20.4l-0.5,0.1L525,30.9c-1.4,3.5-2,3.7-4.1,4.1v0.4h7.7V35
		c-2.8-0.6-3.4-0.8-2.6-3.3c0.6-1.8,1.3-3.7,2.1-6h7.4c1.1,3.1,2,5.8,2.5,7.4c0.4,1.3-0.1,1.6-2.1,2v0.4h8.3V35
		C542,34.4,541.5,34.4,540.4,31.2z M528.5,24.5c1.1-3.1,2.3-6.3,3.4-9.4l3.3,9.4H528.5z"/>
	<path class="st0" d="M560.3,33c-1,1.4-1.8,1.4-4,1.4c-0.6,0-1.8,0-2.5,0c-2.5,0-2.9-0.1-2.9-2.7V15.5c0-3,0.3-3.2,3-3.7v-0.4H545
		v0.4c2.9,0.4,3.2,0.6,3.2,3.7v15.7c0,3-0.2,3.3-3.5,3.8v0.4h16.4c0.4-1.3,1.1-4.6,1.3-5.6l-0.5-0.1C561.4,31.1,560.9,32,560.3,33z"
		/>
	<path class="st0" d="M576.9,10.8c-7.4,0-12,6.2-12,12.9c0,6.9,5.2,12.2,11.7,12.2c6.6,0,12-5.1,12-12.9
		C588.6,15.8,583.1,10.8,576.9,10.8z M577.4,35.1c-5.6,0-9.4-5.2-9.4-12.4c0-7.2,3.8-11,8.1-11c5.3,0,9.2,4.6,9.2,12.5
		C585.4,31.3,581.8,35.1,577.4,35.1z"/>
	<path class="st0" d="M607.7,24.6v0.5c3.3,0.4,3.4,0.6,3.4,3.3v3.1c0,1.9-0.4,2.4-1.3,2.9c-0.8,0.4-2.2,0.6-3.5,0.6
		c-7.6,0-10.4-6.3-10.4-12.1c0-7.1,3.5-11.3,9.5-11.3c1.4,0,2.7,0.2,3.6,0.4c2.6,0.7,3.6,2.4,4.3,5.1l0.5-0.1
		c-0.3-1.6-0.4-4.3-0.5-5.5c-0.9,0-3.4-0.8-6.9-0.8c-7.1,0-13.7,4.1-13.7,12.6c0,7.7,5.1,12.5,13.1,12.5c2.7,0,6-0.9,8.2-1.3
		c-0.3-0.9-0.3-2.1-0.3-3.5V28c0-2.1,0.1-2.5,2.3-2.9v-0.5H607.7z"/>
</g>
</svg>
