<svg width="130" height="121" xmlns="http://www.w3.org/2000/svg" xmlns:xlink="http://www.w3.org/1999/xlink"><defs><path id="a" d="M.124.017H14.56v13.947H.124z"/><path id="c" d="M0 .002h129.049V78.3H0z"/></defs><g fill="none" fill-rule="evenodd"><path d="M13.143 97.714c.034 1.394.203 1.836.663 1.972.323.085.697.102.85.102.085 0 .136.034.136.102 0 .102-.102.136-.306.136-.97 0-1.65-.05-1.803-.05-.153 0-.867.05-1.632.05-.17 0-.272-.017-.272-.136 0-.068.05-.102.136-.102.136 0 .442-.017.697-.102.425-.119.51-.612.51-2.16l.017-9.742c0-.663.052-.85.187-.85.136 0 .425.374.596.544.255.289 2.788 3.026 5.407 5.832 1.683 1.802 3.536 3.877 4.08 4.438l-.186-8.638c-.017-1.105-.136-1.48-.664-1.615a4.54 4.54 0 00-.833-.085c-.119 0-.136-.051-.136-.12 0-.101.136-.118.34-.118.765 0 1.582.051 1.768.051.188 0 .749-.051 1.446-.051.187 0 .306.017.306.119 0 .068-.068.119-.187.119-.085 0-.204 0-.408.05-.561.12-.63.494-.63 1.514l-.034 9.964c0 1.123-.033 1.208-.153 1.208-.136 0-.34-.187-1.24-1.089-.188-.17-2.636-2.67-4.439-4.608a353.424 353.424 0 01-4.438-4.88l.217 8.143.005.002zM34.821 94.398c.085 0 .085-.052.068-.12l-1.615-4.59c-.085-.256-.17-.256-.256 0l-1.496 4.59c-.034.086 0 .12.05.12h3.249zm-1.769-6.802c.205-.56.273-.663.374-.663.103 0 .17.085.375.612.255.646 2.924 7.669 3.962 10.253.612 1.513 1.105 1.786 1.462 1.888.255.085.51.102.68.102.102 0 .17.017.17.102 0 .102-.153.136-.34.136-.255 0-1.496 0-2.67-.034-.323-.017-.51-.017-.51-.119 0-.068.051-.102.12-.119.101-.034.203-.187.101-.459l-1.581-4.183c-.034-.068-.068-.102-.153-.102h-3.656c-.085 0-.136.051-.17.136l-1.02 3.01c-.153.425-.238.833-.238 1.139 0 .34.357.493.646.493h.17c.119 0 .17.034.17.102 0 .102-.102.136-.255.136-.408 0-1.14-.05-1.326-.05-.187 0-1.122.05-1.922.05-.22 0-.323-.034-.323-.136 0-.068.068-.102.153-.102.12 0 .357-.017.493-.034.782-.102 1.123-.748 1.428-1.598l3.858-10.56h.002zM47.221 95.094c0 1.633 0 2.976.085 3.69.051.493.153.868.663.935.239.035.613.069.766.069.102 0 .136.05.136.101 0 .086-.085.136-.272.136-.936 0-2.007-.05-2.092-.05-.085 0-1.156.05-1.666.05-.187 0-.272-.034-.272-.136 0-.05.034-.101.136-.101.153 0 .357-.034.51-.069.34-.067.425-.442.493-.935.085-.714.085-2.057.085-3.69v-7.192l-2.517.034c-1.053.016-1.462.136-1.734.544a2.986 2.986 0 00-.289.527c-.051.136-.102.17-.17.17-.05 0-.085-.051-.085-.153 0-.17.34-1.632.374-1.768.034-.102.102-.323.17-.323.12 0 .29.17.748.204.494.05 1.14.085 1.344.085h6.376c1.088 0 1.548-.17 1.684-.17.084 0 .084.101.084.203 0 .51-.05 1.684-.05 1.87 0 .154-.052.222-.12.222-.085 0-.119-.051-.136-.29l-.014-.184c-.068-.51-.459-.901-2.092-.935l-2.142-.034v7.191h-.003zM58.474 95.094c0 1.633 0 2.976.085 3.69.05.493.153.868.663.935.238.035.612.069.765.069.102 0 .136.05.136.101 0 .086-.085.136-.272.136-.935 0-2.006-.05-2.092-.05-.085 0-1.156.05-1.666.05-.187 0-.272-.034-.272-.136 0-.05.034-.101.136-.101.153 0 .358-.034.51-.069.34-.067.425-.442.494-.935.085-.714.085-2.057.085-3.69v-2.992c0-2.653 0-3.129-.034-3.673-.035-.578-.204-.867-.579-.952a2.224 2.224 0 00-.527-.068c-.068 0-.136-.034-.136-.102 0-.102.085-.136.272-.136.561 0 1.633.051 1.718.051.085 0 1.156-.051 1.666-.051.187 0 .272.034.272.136 0 .068-.068.102-.136.102-.119 0-.221.017-.425.05-.46.086-.595.375-.63.97-.033.544-.033 1.02-.033 3.673v2.992zM70.616 99.618c1.53 0 4.694-.884 4.694-5.832 0-4.081-2.483-6.275-5.17-6.275-2.84 0-4.965 1.87-4.965 5.595 0 3.963 2.381 6.513 5.441 6.513v-.001zm-.356-12.685c3.825 0 6.682 2.414 6.682 6.376 0 3.81-2.686 6.955-6.784 6.955-4.66 0-6.598-3.622-6.598-6.683 0-2.754 2.006-6.648 6.7-6.648zM82.868 97.714c.034 1.394.203 1.836.663 1.972.323.085.697.102.85.102.085 0 .136.034.136.102 0 .102-.102.136-.306.136-.969 0-1.65-.05-1.802-.05-.153 0-.868.05-1.632.05-.17 0-.273-.017-.273-.136 0-.068.051-.102.136-.102.137 0 .443-.017.697-.102.426-.119.51-.612.51-2.16l.017-9.742c0-.663.052-.85.188-.85.135 0 .424.374.595.544a843.88 843.88 0 005.407 5.832c1.683 1.802 3.537 3.877 4.081 4.438l-.187-8.638c-.017-1.105-.136-1.48-.664-1.615a4.534 4.534 0 00-.833-.085c-.119 0-.136-.051-.136-.12 0-.101.136-.118.34-.118.766 0 1.582.051 1.768.051.188 0 .749-.051 1.446-.051.187 0 .306.017.306.119 0 .068-.068.119-.186.119-.086 0-.205 0-.409.05-.56.12-.629.494-.629 1.514l-.034 9.964c0 1.123-.034 1.208-.153 1.208-.136 0-.34-.187-1.24-1.089-.189-.17-2.637-2.67-4.44-4.608a356.728 356.728 0 01-4.437-4.88l.22 8.143v.002zM104.545 94.398c.085 0 .085-.052.068-.12l-1.616-4.59c-.085-.256-.17-.256-.255 0l-1.496 4.59c-.034.086 0 .12.051.12h3.248zm-1.769-6.802c.204-.56.272-.663.374-.663.102 0 .17.085.374.612.255.646 2.925 7.669 3.962 10.253.613 1.513 1.105 1.786 1.463 1.888.254.085.51.102.68.102.101 0 .17.017.17.102 0 .102-.154.136-.34.136-.256 0-1.497 0-2.67-.034-.323-.017-.51-.017-.51-.119 0-.068.05-.102.118-.119.103-.034.205-.187.103-.459l-1.582-4.183c-.034-.068-.067-.102-.152-.102h-3.656c-.085 0-.137.051-.17.136l-1.02 3.01c-.154.425-.239.833-.239 1.139 0 .34.357.493.646.493h.17c.12 0 .17.034.17.102 0 .102-.102.136-.255.136-.408 0-1.139-.05-1.326-.05-.187 0-1.122.05-1.921.05-.222 0-.324-.034-.324-.136 0-.068.069-.102.154-.102.118 0 .357-.017.493-.034.782-.102 1.122-.748 1.428-1.598l3.857-10.56h.003zM115.962 95.13c0 2.499.068 3.587.374 3.893.272.272.714.391 2.04.391.902 0 1.65-.017 2.058-.51.221-.272.391-.697.442-1.02.017-.136.051-.221.153-.221.085 0 .102.068.102.255s-.119 1.207-.255 1.7c-.119.391-.17.46-1.071.46-2.449 0-3.571-.103-4.557-.103-.153 0-1.156.051-1.667.051-.186 0-.271-.034-.271-.136 0-.05.033-.102.136-.102.153 0 .357-.033.51-.068.34-.068.425-.442.493-.935.085-.714.085-2.058.085-3.69v-2.993c0-2.652 0-3.128-.034-3.672-.034-.578-.17-.85-.731-.97a3.216 3.216 0 00-.579-.05c-.068 0-.135-.035-.135-.102 0-.103.084-.136.272-.136.765 0 1.836.05 1.92.05.086 0 1.327-.05 1.837-.05.187 0 .273.033.273.136 0 .067-.069.102-.137.102a4.03 4.03 0 00-.56.05c-.494.086-.63.375-.664.97-.034.544-.034 1.02-.034 3.672v3.028zM17.374 113.749c.09 0 .09-.055.072-.127l-1.72-4.89c-.09-.272-.182-.272-.272 0l-1.594 4.89c-.036.09 0 .127.055.127h3.46-.001zm-1.884-7.245c.217-.598.29-.707.399-.707.108 0 .18.09.398.652.271.689 3.115 8.17 4.22 10.922.652 1.612 1.177 1.902 1.558 2.01.272.091.543.11.724.11.11 0 .182.018.182.108 0 .109-.163.145-.363.145-.271 0-1.593 0-2.843-.036-.345-.018-.544-.018-.544-.127 0-.072.055-.109.127-.127.109-.036.217-.2.109-.489l-1.685-4.456c-.036-.072-.072-.108-.163-.108h-3.897c-.09 0-.144.054-.18.145l-1.087 3.206c-.163.452-.254.887-.254 1.213 0 .363.38.526.688.526h.181c.127 0 .182.036.182.108 0 .109-.11.145-.272.145-.435 0-1.214-.054-1.413-.054-.2 0-1.196.054-2.047.054-.235 0-.344-.036-.344-.145 0-.072.073-.108.163-.108.127 0 .38-.019.526-.037.833-.108 1.195-.797 1.52-1.702l4.113-11.249h.002zM29.156 112.879c0 .09.036.163.126.217.272.163 1.106.29 1.902.29.435 0 .942-.054 1.359-.344.634-.435 1.105-1.413 1.105-2.79 0-2.264-1.196-3.622-3.134-3.622-.543 0-1.033.055-1.213.109a.218.218 0 00-.145.217v5.923zm-1.45-1.575c0-2.826 0-3.333-.037-3.912-.036-.616-.18-.906-.778-1.033a3.372 3.372 0 00-.616-.054c-.073 0-.145-.037-.145-.109 0-.109.09-.145.29-.145.815 0 1.956.055 2.046.055.2 0 1.576-.055 2.138-.055 1.141 0 2.354.109 3.314.797.453.326 1.25 1.214 1.25 2.464 0 1.34-.562 2.68-2.191 4.184 1.485 1.901 2.716 3.513 3.767 4.637.978 1.032 1.757 1.231 2.21 1.304.344.054.597.054.706.054.09 0 .163.054.163.109 0 .108-.109.145-.435.145h-1.286c-1.014 0-1.467-.09-1.938-.344-.779-.417-1.412-1.305-2.445-2.663-.761-.996-1.612-2.21-1.974-2.68-.073-.073-.127-.11-.236-.11l-2.228-.036c-.09 0-.126.055-.126.145v.435c0 1.739 0 3.17.09 3.93.055.526.163.924.706.996.254.037.652.073.815.073.109 0 .145.054.145.109 0 .09-.09.144-.29.144-.996 0-2.137-.054-2.228-.054-.017 0-1.159.054-1.702.054-.2 0-.29-.036-.29-.144 0-.055.037-.109.145-.109.163 0 .38-.036.543-.073.363-.072.453-.47.526-.996.09-.76.09-2.191.09-3.93V111.304zM42.86 118.041c-1.758-1.576-2.193-3.64-2.193-5.361 0-1.214.417-3.333 2.029-4.945 1.087-1.087 2.735-1.938 5.524-1.938.725 0 1.74.054 2.627.217.688.127 1.268.236 1.847.272.2.018.236.09.236.2 0 .144-.055.361-.091 1.013-.036.598-.036 1.594-.054 1.866-.018.272-.054.38-.163.38-.127 0-.145-.127-.145-.38 0-.706-.29-1.45-.76-1.847-.635-.544-2.03-1.033-3.623-1.033-2.41 0-3.533.706-4.166 1.322-1.323 1.268-1.63 2.88-1.63 4.728 0 3.46 2.662 6.63 6.538 6.63 1.359 0 2.427-.164 3.152-.907.38-.398.616-1.195.67-1.521.036-.2.072-.272.18-.272.092 0 .128.127.128.272 0 .127-.217 1.703-.398 2.318-.11.344-.146.38-.471.525-.725.29-2.101.417-3.26.417-2.716.002-4.546-.669-5.977-1.955zM69.563 114.49c0 1.74 0 3.17.09 3.93.054.526.163.925.707.997.253.036.652.073.815.073.108 0 .145.054.145.108 0 .09-.091.145-.29.145-.997 0-2.137-.054-2.228-.054-.09 0-1.232.054-1.775.054-.2 0-.29-.036-.29-.145 0-.054.036-.108.145-.108.163 0 .38-.037.543-.073.363-.072.453-.47.525-.996.09-.76.09-2.192.09-3.93v-1.902c0-.073-.053-.11-.108-.11h-7.68c-.054 0-.108.019-.108.11v1.902c0 1.738 0 3.17.09 3.93.055.525.163.924.707.996.253.036.652.073.815.073.109 0 .145.054.145.108 0 .09-.09.145-.29.145-.996 0-2.137-.054-2.228-.054-.09 0-1.232.054-1.775.054-.2 0-.29-.036-.29-.145 0-.054.037-.108.145-.108.164 0 .38-.037.543-.073.363-.072.453-.47.526-.996.09-.76.09-2.192.09-3.93v-3.188c0-2.826 0-3.333-.036-3.912-.036-.616-.18-.906-.779-1.033a3.368 3.368 0 00-.616-.055c-.072 0-.144-.036-.144-.108 0-.109.09-.145.29-.145.814 0 1.956.054 2.046.054.09 0 1.232-.054 1.775-.054.2 0 .29.036.29.145 0 .072-.072.108-.145.108-.127 0-.235.019-.452.055-.49.09-.635.398-.671 1.033-.036.579-.036 1.086-.036 3.912v.38c0 .09.054.109.108.109h7.68c.055 0 .109-.018.109-.11v-.38c0-2.825 0-3.332-.036-3.911-.036-.616-.181-.906-.779-1.033a3.377 3.377 0 00-.616-.055c-.072 0-.144-.036-.144-.108 0-.109.09-.145.29-.145.814 0 1.956.054 2.047.054.09 0 1.23-.054 1.774-.054.2 0 .29.036.29.145 0 .072-.073.108-.145.108-.126 0-.235.019-.453.055-.489.09-.633.398-.67 1.033-.036.579-.036 1.086-.036 3.912V114.49zM78.533 114.49c0 1.74 0 3.17.09 3.93.055.526.164.925.707.997.254.036.652.073.815.073.109 0 .145.054.145.108 0 .09-.09.145-.29.145-.996 0-2.137-.054-2.227-.054-.09 0-1.232.054-1.776.054-.199 0-.29-.036-.29-.145 0-.054.037-.108.146-.108.163 0 .38-.037.543-.073.362-.072.453-.47.525-.996.09-.76.09-2.192.09-3.93v-3.188c0-2.826 0-3.333-.036-3.912-.036-.616-.217-.925-.615-1.015a2.373 2.373 0 00-.562-.073c-.073 0-.145-.036-.145-.108 0-.109.091-.145.29-.145.598 0 1.74.054 1.83.054.09 0 1.231-.054 1.775-.054.199 0 .29.036.29.145 0 .072-.073.108-.145.108-.127 0-.236.019-.454.055-.488.09-.633.398-.67 1.033-.036.579-.036 1.086-.036 3.912V114.49z" fill="#FFF"/><g transform="translate(83.2 106.035)"><mask id="b" fill="#fff"><use xlink:href="#a"/></mask><path d="M7.75 11.5c1.05-2.427 3.477-8.748 3.876-10.052.09-.272.162-.526.162-.689 0-.145-.054-.326-.235-.416-.217-.073-.489-.073-.688-.073-.11 0-.2-.018-.2-.108 0-.109.11-.145.4-.145.723 0 1.557.054 1.774.054.109 0 .888-.054 1.413-.054.2 0 .308.036.308.127 0 .09-.072.126-.217.126-.127 0-.526 0-.87.218-.235.163-.507.47-.996 1.702-.2.507-1.105 2.681-2.028 4.909-1.106 2.644-1.92 4.6-2.337 5.488-.507 1.087-.58 1.377-.76 1.377-.218 0-.309-.254-.653-1.123L2.26 1.737C1.863.723 1.591.524.957.343.685.27.377.27.27.27.161.27.124.216.124.144c0-.11.181-.127.471-.127.87 0 1.902.054 2.12.054.18 0 .995-.054 1.684-.054.326 0 .489.036.489.127 0 .09-.055.126-.182.126-.199 0-.525.018-.688.09a.363.363 0 00-.235.363c0 .235.217.797.489 1.503l3.477 9.277V11.5z" fill="#FFF" mask="url(#b)"/></g><path d="M102.693 111.304c0-2.826 0-3.333-.036-3.912-.036-.616-.18-.906-.778-1.033a3.374 3.374 0 00-.616-.054c-.073 0-.145-.037-.145-.109 0-.109.09-.145.29-.145.815 0 1.956.055 2.046.055.127 0 3.732 0 4.148-.019a4.82 4.82 0 00.78-.09c.09-.018.162-.09.253-.09.054 0 .072.072.072.162 0 .127-.09.344-.145.852-.018.18-.054.978-.09 1.195-.018.09-.055.2-.127.2-.109 0-.145-.091-.145-.236 0-.127-.018-.435-.109-.652-.126-.29-.307-.507-1.286-.616-.308-.036-2.282-.054-2.481-.054-.073 0-.109.054-.109.18v5c0 .127.018.181.109.181.235 0 2.463 0 2.88-.036.435-.036.688-.073.851-.254.127-.145.2-.235.272-.235.054 0 .09.036.09.145 0 .108-.09.416-.145 1.014a20.688 20.688 0 00-.072 1.16c0 .145 0 .344-.127.344-.09 0-.127-.073-.127-.163 0-.181 0-.363-.072-.598-.073-.254-.235-.562-.942-.634-.489-.054-2.282-.09-2.59-.09-.09 0-.127.054-.127.126v1.594c0 .616-.018 2.717 0 3.097.054 1.25.326 1.486 2.1 1.486.472 0 1.269 0 1.74-.2.47-.199.688-.56.815-1.304.036-.199.072-.271.163-.271.109 0 .109.144.109.271 0 .145-.145 1.377-.236 1.757-.127.471-.272.471-.978.471-2.735 0-3.949-.109-4.474-.109-.09 0-1.232.055-1.775.055-.2 0-.29-.036-.29-.145 0-.054.036-.109.145-.109.163 0 .38-.036.543-.072.362-.073.453-.471.525-.996.09-.761.09-2.192.09-3.93v-3.188l.001-.001zM113.663 119.509c-.253-.127-.271-.2-.271-.689 0-.905.073-1.63.09-1.92.019-.199.055-.29.146-.29.108 0 .126.055.126.2 0 .163 0 .417.054.67.272 1.34 1.468 1.848 2.681 1.848 1.74 0 2.59-1.25 2.59-2.41 0-1.25-.525-1.974-2.083-3.26l-.814-.67c-1.92-1.576-2.355-2.699-2.355-3.93 0-1.938 1.449-3.26 3.75-3.26a7.02 7.02 0 011.683.18c.344.073.49.09.635.09.145 0 .18.037.18.128 0 .09-.072.688-.072 1.92 0 .29-.036.416-.127.416-.108 0-.126-.09-.145-.235-.017-.218-.127-.706-.235-.906-.108-.2-.598-.96-2.264-.96-1.25 0-2.228.779-2.228 2.101 0 1.032.507 1.648 2.21 3.043l.507.399c2.137 1.684 2.644 2.807 2.644 4.256 0 .743-.29 2.12-1.54 3.007-.778.543-1.756.76-2.734.76-.85.002-1.683-.125-2.426-.487l-.002-.001z" fill="#FFF"/><g transform="translate(0 .144)"><mask id="d" fill="#fff"><use xlink:href="#c"/></mask><path d="M71.003 54.143c-.743 1.348-2.567.968-3.47 0 .198 1.678 2.581 1.923 3.47.695.423.225.599.696 1.111.833-.093-.848-1.111-.982-1.111-1.528zm-.278-.416c-.78-.885-1.383-1.948-2.082-2.915-.714.82.118 1.358.555 1.666.847.596.784 1.714 1.528 1.25zm3.193-44.285c-1.73.352-3.306.86-4.997 1.25-.547-.243-1.479-.832-2.083-.556.5.288 1.299.275 1.527.833-2.287 1.38-5.293 2.628-7.219 4.998-2.293 2.824-4.665 6.745-4.997 10.55-.055.622-.305 2.013.555 2.083.271-3.921 1.22-6.48 2.776-9.162 3.128-5.395 8.14-9.123 16.243-9.024.626.008 2.216.55 1.527-.694 0 0-.961-1.15-2.36-2.638-2-2.272-5.09-3.984-9.3-4.303-1.478-.113-3.264-.204-4.304.694 6.318-.651 10.95 1.524 12.632 5.968v.001zM10.337 70.664c-.183-.516.184-1.227-.555-1.527-.277 1.35-.1 2.534.277 3.47.821 2.036 2.119 3.914 3.619 5.603h6.833c-2.694-.755-5.076-1.807-6.426-3.242-1.433-1.173-3.062-2.373-3.747-4.304h-.001zM61.563 57.06c.391-.025.173-.66.694-.555 2.854-.204 4.256.689 6.664-.278-2.288.617-3.803-1.192-5.137-1.805.16.859.838 1.198 1.389 1.666a5.162 5.162 0 01-5.137-1.943c-.52.686.581 1.242.278 1.665-4.084-1.705-9.354-4.964-7.497-10.411-3.454 5.882 3.872 10.54 8.746 11.662v-.001zm.972-6.665c-.537 1.708.936 2.57 2.082 3.054-.895-.817-1.868-1.558-2.083-3.055zm-2.777-6.941c-.862-.608-1.472 1.38-2.083 1.943-.224-.423-.427-.868-.971-.971.168.71.77.988.971 1.665.319 2.022.841 3.518 1.944 4.72.642.7 1.539 1.624 2.36 1.527-1.353-1.886-3.15-3.327-3.887-5.83.278-1.295.756-2.39 1.665-3.055zM77.944 76.91c.074.491-.118.715-.416.833-.37.154-.836.318-1.352.466h3.878c.182-.162.318-.399.388-.743-1.122.103-1.634-.402-2.498-.556zM61.91 42.631c-.249-.02-.245.103-.095.185 3.486.938 4.451 5.705 4.451 5.705s.087.201.136.037c.026-.088-.048-.667-.048-.667s-.867-5.938-4.442-5.26h-.002zm-.486-14.17c-1.614-.207-3.237.236-4.165.834-2.507 3.002-3.387 10.104-1.388 14.438.205-1.905-.648-4.261-.555-6.664.16-4.153 1.985-7.807 6.525-7.358 1.074.106 1.654.74 2.499 1.25.682-1.359-1.375-2.303-2.915-2.5zm-14.436-7.358c-.35 2.496-1.236 5.86-.555 8.468 1.105-.76.683-2.709.694-4.164.01-1.31.027-2.434.087-3.445.084-1.42.726-5.022 1.448-7.102.884-2.548 2.69-4.724 3.601-6.806-3.113 3.487-4.695 8.772-5.271 13.05l-.003-.002-.001.001zm52.614 56.364c-.31.253-.678.527-1.12.743h.922c.372-.45.658-.987.753-1.715-.574-.065-.37.649-.556.972zm-52.892-2.083c-2.868.167-5.174-.895-7.08-2.499.388-1.41 1.964-.791 2.915-.833 3.676-.162 7.998-.951 10.967-1.805.665.45 1.602 1.121 2.638 1.389.619.16 1.491-.295 1.805.555-2.854 1.469-7.3 2.962-11.244 3.194v-.001zm-10.829-.14c-4.66.227-8.681-.69-13.05-1.804-2.844-.726-6.43-2.184-7.218-4.304.112-.026.138-.14.278-.139 3.912 1.403 8.45 2.676 13.327 3.332 3.82.514 7.14.732 9.995 2.221-.718.752-2.17.64-3.332.696v-.002zm-21.657-8.467c-3.68-1.613-7.06-4.201-9.44-7.357-2.118-2.81-4.45-6.528-3.748-11.662.413-3.018 2.349-6.96 6.247-6.247.814 2.009 1.259 4.387 2.36 6.108.118.026.13-.054.139-.138.006-.688.549-.84.694-1.388 4.683 6.47 10.317 11.987 18.88 14.577-.108.894.206 1.367.139 2.221-.673.141-3.877-1.02-4.86-1.388-4.58-1.715-9.132-4.368-12.077-8.052-1.19-1.489-1.605-3.384-2.638-5.275-1.374 1.83-.007 5.134 1.25 6.802 3.552 4.713 11.745 8.138 18.186 9.163.523 2.114 1.949 3.326 3.748 4.164.104 1.516.988 2.251 1.389 3.471-5.111-.455-10.857-1.89-14.994-3.332-1.753-.61-3.697-.974-5.273-1.664l-.002-.003zm4.582-50.394c-.153 1.85-.86 5.046-.416 7.497-7.162 4.248-2.264 15.003 1.11 19.851.942 1.353 2.203 2.647 3.47 3.887 1.649 1.614 3.238 3.123 5.415 3.61-.127.893-.704 1.331-.833 2.082-.468 2.738 1.413 4.44 1.943 5.97-7.377-2.147-12.762-7.42-16.936-13.189-1.9-2.625-4.572-6.159-5.276-10.134-1.716-9.696 2.49-17.92 11.523-19.574zM30.35 56.33c.149.008.318.048.394.175 2.623 2.61 6.647 4.174 10.967 5.136 1.469.328 3.427.296 4.72.834.719.299 1.188 1.117 1.943 1.388-.078 1.05.769 1.175.833 2.082-7.085.527-18.718-.01-19.018-9.162.023-.522.105-.422.16-.454v.001zM51.15 68.165c.909.338 2.032.055 2.5.833-.55 1.03-1.905.763-2.916.972-4.967 1.026-11.6 2.133-15.132-1.11-.895-.822-1.44-2.05-1.805-3.332.074-.112.145-.226.14-.417a29.512 29.512 0 009.717 2.083c1.736.078 3.813-.386 5.692 0 .664.136 1.117.717 1.803.971h.001zm24.572 5.554c.11.48-.154.585-.277.833-2.04 1.314-5.184 2.369-8.33 1.387.107-.325.171-.989.555-1.387 2.87-.522 4.544-2.29 8.191-1.666-.029-.4.035-.706.277-.833 2.33-1.234 5.088-2.04 7.08-3.61-1.53.338-2.954.329-4.164-.278-.16 1.087.846 1.005 1.25 1.528-2.144.87-5.27 3.089-7.636 1.25-.109.571.213.711.139 1.248-2.566 1.384-6.73 2.72-9.996 1.111.06-.496.349-.762.695-.972 3.466-.145 5.632-2.75 9.162-1.943.211-.344.285-.826.694-.972 2.12-.425 3.23-1.86 5.83-1.805-.168-.77.623-.58.695-1.11-.937.22-1.968.345-3.193.277-1.472-1.59 1.298-1.85 1.804-2.776-1.245.917-3.009.94-4.997.833.052 1.348-1.374 1.218-1.944 1.943 1.371-.35 2.882-1.27 4.581-.833-.214.594.103 1.46.556 1.805-1.483.96-3.913 1.694-5.97 1.25-.386-.063.11.756-.277.694-3.343 1.03-7.39 3.275-11.523 1.804-.171.45.45.106.278.555-1.264.236-1.75-1.195-.972-1.804 4.744-.07 7.446-2.18 12.217-2.221.156-.496 1.016-1.014.833-1.389-.756.522-2.474.83-3.471.278.174.422.106.54-.139.833-3.503.888-7.196 2.187-11.661 1.666-.54-.627-1.574-1.151-2.221-1.25.049-.413.08-.845.416-.971 5.367.416 8.777-1.126 13.605-1.25 1.642-2.292 6.318-1.548 8.33-3.47-1.793.298-3.222 1.275-5.137.693-.967 1.732-4.257 2.345-5.83.833-.443.589.614.81.277 1.25-5.643 1.065-14.876 3.122-16.659-3.054.198-.033.234-.229.416-.278 4.416 2.456 10.421 1.634 15.965 1.388.412-.097.22-.798.694-.833 1.752-.192 2.831-1.056 4.998-.833 1.026-.686 2.344-1.08 3.749-1.388-.02-.342-.022-.669.138-.833-1.158.047-2.235.015-2.915-.416.134.884 1.487.549 1.944 1.11-1.587.551-4.019 1.089-5.554.14-.46.415.727.866.417 1.11-1.28.625-3.54 1.015-4.998.277-.29.126-.05.784-.416.833-7.418.647-16.131.828-16.937-6.802-.633-.17.013.938-.416.972-5.694-2.069-10.386-5.663-13.05-10.828-.293-.568-.503-1.394-.694-2.222-.179-.772-.173-2.023-.694-2.082-.417 3.134.447 5.86 2.221 7.913a92.743 92.743 0 001.666 1.805c2.848 2.996 7.296 4.995 10.55 6.802-.387 1.654.755 2.462.695 3.332-5.588-.626-12.291-2.852-15.966-6.247-1.448-1.338-2.01-3.26-2.22-5.553-.017.17-.042.329-.278.278-.475-.374-1.665-1.164-1.944-1.389-2.3-1.854-4.85-4.885-6.802-8.19-2.448-4.144-6.586-12.692-1.11-15.826.202 7.138 3.246 13.05 6.246 17.77 1.22 1.919 2.493 4.1 4.581 4.86.022-.442.315-.611.278-1.111-6.782-6.409-14.464-23.458-7.219-34.43 3.025-4.58 8.162-7.417 14.994-6.247 1.272.135.68.414.416.972-1.124 2.023-2.22 4.074-2.776 6.664-.777.658-1.875.995-2.36 1.943.805-.192 1.423-1.226 2.36-.833-.914 5.727-.629 12.685.555 17.77.285 1.224.2 2.824 1.25 3.471.229-.209.47-.085.555-.278-1.542-5.323-3.244-12.245-2.083-19.296C36.304 8.063 42.427 1.544 50.041.698c3.123-.347 6.447.586 8.33 2.499-2.294.515-4.193 3-6.525 3.748-1.373.44-2.797.367-3.887 1.11-.967.66-1.408 1.634-2.083 2.777 1.757-1.595 3.624-3.939 6.803-2.915 1.712-1.574 3.64-2.983 5.634-4.274l.057-.03c.456-.239 1.112-.276 1.25-.833-2.47-1.685-5.321-2.834-8.746-2.776-4.993.083-8.7 2.065-11.245 4.165-.067.05-.11.102-.11.102-2.039-.621-3.837-1.294-6.137-.935-6.548 1.022-11.888 6.67-14.021 11.938-10.213 1.382-16.163 12.693-12.633 23.6-2.677 2.379-5.514 4.267-6.39 8.188-.129.578-.163.879-.216 1.292-1.095 8.543 5.443 15.48 9.656 19.948.411-.33.688-.794 1.25-.973 1.474 1.257 2.688 2.773 4.442 3.749.152.575.49 1.134.833 1.388 4.405 3.272 15.161 3.888 22.767 3.193.53 1.321 2.339 2.008 3.649 2.549h3.955c-.129-.06-.299-.117-.385-.228-.332-.811-1.1-.62-1.111-1.488 4.421-.762 8.826-1.54 12.772-2.776 1.051 1.205 3.7.047 4.72.833.193.978-1.17 1.102-1.943 1.388-1.758.648-3.944 1.617-6.228 2.27h2.639a27.747 27.747 0 003.033-1.02c.804-.33 1.605-1.031 2.5-1.111 1.258-.113 2.733.748 4.164.139.113.627.488.992.555 1.666-.2.11-.403.218-.608.327H70.9a2.087 2.087 0 01-.871-1.022c2.095-.404 3.918-1.08 5.414-2.082 2.782 1.36 4.416-1.322 5.97-2.5-1.746.599-3.586 2.923-5.69 1.11l.001.005zm15.132 3.748c-2.429.803-7.364.648-7.774-2.221-.16-1.118.508-3.357 1.249-4.165.287-.313 1.886-1.437 2.915-1.805 1.218-.435 3.046-.289 4.026 0-1.727-4.75-7.027-6.67-11.383-8.33 3.58 2.297 8.206 3.549 10.273 7.358-3.033.114-4.94 1.354-6.525 2.916-.584-.388-1.436-.507-1.944-.972-.162 1.319.927 1.386 1.944 1.527-1.627 1.937-.99 5.185.399 6.435h8.387c1.178-.51 2.287-1.165 3.153-2.132-1.793-.48-3.15.869-4.721 1.39v-.001zm23.277.743h.46c-.221-.254-.45-.504-.692-.743.046.261.13.507.231.743zm-8.423-4.214c.263.474.848 1.222.693 1.666-1.741.259-4.148.362-4.858-.833-1.206-.102-3.287.383-4.442-.277-.439.44-1.116.643-1.389 1.25.592.261 1.103-.618 1.805-.695 1.345.395 3.068.96 4.026.278 1.014 1.051 2.77.56 3.748 1.527-.057.6.072 1.014.33 1.299.027.03.056.061.087.09-.003-.031-.003-.06-.005-.09-.076-1.251.434-1.916 1.115-2.41 1.113.915 2.75 1.093 4.304 1.25-1.3-.736-2.957-1.115-4.304-1.805-.368-.33-.686-1.439-1.113-1.248l.003-.002zm6.525-.14c-.24.605-.426 1.297.139 1.667-.164.067-.315.148-.417.278.52.212 1.307 1.352 1.805.694-1.148-.352-1.123-1.904-1.528-2.638zm1.527 4.165c-.72-.529-1.323-1.175-2.221-1.527.564.594 1.418 1.634 2.221 1.528zM32.687 37.762c2.352-1.341-.355-4.153-1.25-6.524-1.57-4.17-2.029-10.198-.832-14.022-3.072 6.26-.665 15.38 2.083 20.547zm71.634 31.653c1.052.033 2.205.635 2.638.833-.169-.9-1.628-1.241-2.639-.834h.001zm2.637 2.637c.028-.4-.035-.706-.278-.833-.097.328-.318.881.278.833zm.556 1.249c-.201-.494-.844-.545-1.25-.833.138.557.781.608 1.25.834V73.3zm-7.775-1.943c.89.174.68 1.45 1.25 1.943.98-1.45 3.397.362 4.58 0-1.446-.45-2.747-1.047-4.441-1.25-.388-.26-.143-1.153-.833-1.11.222.547-.6.048-.556.416zm28.042-12.355c1.966 1.82.39 8.33-2.082 7.496v-.138c1.097-4.468-2.737-3.582-6.525-3.749-2.148-.094-4.756-.345-6.385-.139-1.369.174-3.742.799-3.61 2.083 1.62.389 3.272-.887 5.414-.972 2.635-.105 6.108.416 6.108.416 1.509.25 3.031.487 4.582.694.427.206-.119.352-.417.417s-3.363-.36-6.38-.8c-1.713-.266-4.505-.456-6.114.105-1.086.38-1.602 1.157-2.638.973-.701-.126-.9-.879-1.526-.973-.788 1.989 1.385 2.49 2.498 3.332 2.296 1.738 3.596 5.156 5.97 6.525 2.341-3.073 6.281-4.547 9.162-7.08.202.215.71.122 1.11.139 1.704-1.483 3.294-7.29.834-8.33zM90.44 61.224l.555-1.25c.609-.964 1.466-1.68 1.943-2.776.54.618.961 1.353 2.36 1.11.519 2.208-1.468 2.676-3.609 2.639.023 1.134 1.16.727 2.082.694-.146.701.317.794.278 1.388 1.064.629 2.017.39 2.915-.139-1.837 2.428-4.78-.421-6.524-1.388v-.278zm23.046-3.324c-1.178-.257-1.454-1.415-2.222-2.082 1.411-.52 2.701.673 2.221 2.083zm5.55-1.67c-.47-.037-1.125.108-1.388-.138.193-.178.014-.46.278-.833v-.004h.001v-.003a1.432 1.432 0 000-.82v-.01c-.62-1.094-1.221-1.55-2.36-2.22-1.486-.876-2.62-1.315-5.136-1.111-5.111.413-12.419 1.176-16.104 3.886-2.42 1.78-3.398 4.453-4.72 6.248-6.257-3.93-15.8-7.737-20.268-13.466-2.284-2.929-4.228-7.341-2.498-11.94.472-.405.672-1.084 1.11-1.526.066-.615-.191-.69 0-1.11 2.308-2.135 4.033-4.852 7.219-6.11.953.912 2.766.629 4.026-.277 2.563-1.841 5.645-7.458 4.116-11.189-.223-.697-.964-2.53-2.895-3.808a2.01 2.01 0 00-.469-.248 12.098 12.098 0 00-1.03-.442c.23.234.493.433.769.62v.006s.027.015.072.044l.116.078c.533.363 2.068 1.536 2.8 3.413.414 1.66.494 3.916-.425 5.002-.348-1.41-.414-2.15-1.01-3.673-.562-1.556-1.222-2.528-1.905-3.407-2.789-3.59-10.817-2.14-13.466.416 3.512-1.312 8.104-2.894 11.522-.972 1.716.966 2.937 3.541 3.054 5.692.21 3.837-2.654 5.97-5.414 7.358.284-.53.028-1.062 0-1.666-.718-.661-2.503-.68-3.61-.417-2.783.663-4.726 3.7-5.552 5.831.156.45 1.21.727.972 1.11-.298-.257-1.017-.093-1.528-.138-2.36 1.396-.93 4.4-1.388 7.219-.072.446-.412.752-.416 1.11-.008.671.631 1.287.416 1.805.567.313 1.039.72 1.666.972 1.268 3.577 2.615 6.773 4.997 9.023 5.287 3.97 13.3 7.973 19.714 11.522 1.19.66 2.42 1.845 3.61 2.222 1.738.55 2.439-.495 3.47-.972 1.061.698 2.582 1.675 4.165 1.388-1.629-.422-3.938-.698-3.61-2.638-.783.043-1.33 1.113-2.221 1.11-.842 0-1.698-.738-1.666-1.526.075-1.845 2.853-1.3 3.749-2.36a6.392 6.392 0 01-1.805.139c-.365-.283-.17-1.126-.416-1.527-1.026.1-1.769-.083-1.944-.834.34-1.001 1.014-1.67 2.082-1.943.576.396.87 1.074 1.389 1.527.468-.245-.004-.711.139-1.388-.13-.334-1.01.084-.833-.555 2.593-2.075 9.847-3.033 14.843-3.331l.01.003c3.255-.194 5.384 1.696 6.246 3.748-3.194-1.776-8.33-1.629-12.355-1.25-2.048.194-3.871.017-5.275.834 1.716-.096 5.332.103 5.97.139 1.677.04 2.657-.073 4.025.277h.139c.812 1.826 2.686 2.59 3.61 4.304-2.083 2.545-7.378 2.617-7.636 6.525 1.63-3.322 6.145-3.758 8.33-6.525 1.217-.912 2.817-1.44 3.609-2.777h.974a.01.01 0 010 .004c0 .217.832.217.83 0l.002-.004h.137l.005-.003h.007c.31.036.512-.037.545-.278-.263-.247-.917-.101-1.388-.14l-.01.007.007-.002zm-31.65 10.408c-.563.716-2.267.405-2.916 0-.32.422.446.684.277 1.388 1.247-.004 3.024-.214 2.637-1.389h.001zm31.512-8.607c.605.227.858-.61 1.11-.277-1.054.829-2.137 1.738-3.47 2.36-1.352.63-2.957.802-4.026 1.805 1.459-.085 2.916-.918 4.304-1.666 1.327-.716 2.826-1.403 3.886-2.222.517-.398.758-1.076 1.389-1.249 2.068-.567 3.688.616 5.136 1.388-.912-1.132-3.27-2.365-5.275-1.944-.444.094-.777.642-1.25.833-.714.288-2.01-.021-1.805.97v.002zm-3.47 16.381c.12.574.611.777 1.11.972-.17-.525-.792-.596-1.111-.971zM98.49 57.06c.013-.357.541-.199.554-.555-.177-.19-.655-.19-.833 0-.036.317.035.522.28.555h-.001zM80.72 64.833c.041.027.087.052.138.077a.44.44 0 00-.138-.078zm-9.858-6.386c.662-.078 1.25-.23 1.25-.972-1.019.14-1.58-.179-2.36-.277-.022.854 1.13.535 1.665.833.045.368-.775-.13-.554.416zm-23.46-4.72c2.266 3.587 6.216 5.66 11.523 6.109 2.01.17 3.274-.02 4.58.694.582.026.43-.682 1.111-.556 2.759.214 4.324-.766 6.108-1.527-1.604.156-3.45.577-4.58-.277-.167.953.773.8 1.11 1.25-2.479.733-4.402-.19-5.97-1.112-.397.216.29.648-.138.833-6.378-.62-13.96-2.451-13.605-9.3-.205.396-.284.918-.555 1.249-3.194-2.265-8.029-7.68-8.607-13.327-.533-5.204 2.642-7.183 7.357-6.664.725.244.67.81.972 1.25.272-.608.693-1.067.833-1.805-5.092-2.094-10.204 2.083-10.134 6.802.105 7.122 5.941 11.747 9.44 14.994-.239.715-.221 1.142-.278 1.804.393.374.383-.435.834-.419l-.001.002zm38.038 20.27c2.351 4.12 10.46-.885 6.803-4.026 2.171 3.173-3.903 5.931-6.803 4.026zM45.738 10.968c-3.24 4.24-4.39 11.953-3.749 19.158 1.249-.416.603-2.541.556-3.609-.168-3.803.355-7.186 1.11-10.134.544-2.127 1.613-3.735 2.083-5.415zm27.208 45.119c.132.429.664 1.18 1.11.833-.511-.135-.706-.59-1.11-.833zM46.431 34.292c-.427 3.479.744 8.057 1.805 10.273.44.916.832 2.397 1.805 2.36-.55-2.317-2.822-5.792-3.054-9.58-.282-4.596 1.578-8.298 6.386-7.357.781.514 1.112 1.48 1.804 2.082.53-.95 1.137-1.825 1.527-2.915-4.472-2.83-9.68.298-10.273 5.136zm30.82 27.904c-.007.607.346.856.555 1.25 1.232.31 3.005.21 2.915-.973-.877.877-2.775.745-3.47-.278zm-2.5-4.58c.294.79 2.084 1.5 2.222 1.526-.667-.583-1.29-1.212-2.221-1.527zM54.978 21.18c.973-3.903 2.361-5.243 3.248-6.277 1.15-1.343 1.883-2.143 3.06-3.101.263-.214 1.051-.319.832-.833-3.273 1.397-5.844 5.492-7.058 8.693-.517 1.005-.825 2.369-1.132 3.662-.32 1.348-.872 2.987-.278 4.304.727-.64.402-1.844.556-2.777.202-1.23.552-2.503.772-3.67zm21.578 41.016c.77-.064.99-.677 1.25-1.25-1.167.52-2.46.115-3.332-.416.176 1.3 1.367.982 2.5 1.11-.042.284-.376.272-.417.556zm7.774 2.637c-1.118.5-2.746.429-3.472.077.217.174.247.535.417.756 1.135-.162 2.684.091 3.055-.834z" fill="#FFF" mask="url(#d)"/></g></g></svg>