<svg width="187" height="47" xmlns="http://www.w3.org/2000/svg" xmlns:xlink="http://www.w3.org/1999/xlink"><defs><path id="a" d="M0 .461h73.925v44.852H0z"/></defs><g fill="none" fill-rule="evenodd"><g transform="translate(0 .226)"><mask id="b" fill="#fff"><use xlink:href="#a"/></mask><path d="M40.674 31.475c-.427.773-1.471.555-1.989 0 .114.961 1.48 1.102 1.989.398.242.13.343.4.636.477-.053-.485-.636-.562-.636-.875zm-.16-.238c-.447-.507-.792-1.116-1.192-1.67-.41.47.067.778.318.955.484.34.449.981.875.715zm1.83-25.369c-.992.202-1.894.493-2.863.716-.314-.139-.847-.475-1.193-.317.286.164.743.157.874.477-1.31.79-3.032 1.505-4.135 2.862-1.314 1.618-2.673 3.864-2.863 6.044-.03.356-.174 1.153.318 1.193.155-2.246.7-3.711 1.591-5.249 1.791-3.09 4.662-5.225 9.304-5.168.359.003 1.27.315.875-.398 0 0-.55-.659-1.352-1.511-1.146-1.302-2.916-2.283-5.328-2.465-.846-.065-1.87-.117-2.465.397 3.62-.373 6.273.874 7.236 3.419zM5.921 40.938c-.105-.294.105-.701-.319-.873a3.436 3.436 0 00.16 1.988c.47 1.165 1.213 2.241 2.072 3.21h3.915c-1.543-.434-2.908-1.037-3.681-1.859-.82-.671-1.754-1.358-2.147-2.465zm29.344-7.792c.224-.014.1-.378.398-.318 1.634-.117 2.438.395 3.817-.16-1.31.355-2.178-.682-2.943-1.033.091.492.48.686.795.955a2.955 2.955 0 01-2.941-1.114c-.298.393.332.712.158.955-2.339-.977-5.358-2.844-4.294-5.965-1.979 3.37 2.218 6.038 5.01 6.681zm.556-3.818c-.307.979.537 1.473 1.194 1.75-.513-.469-1.07-.893-1.194-1.75zm-1.59-3.976c-.494-.348-.844.79-1.193 1.113-.13-.241-.245-.497-.557-.556.096.407.441.566.557.954.183 1.158.482 2.015 1.113 2.704.368.401.881.93 1.352.874-.775-1.08-1.805-1.906-2.226-3.34.159-.74.432-1.368.954-1.75zM44.65 44.518c.042.28-.068.41-.239.477a7.448 7.448 0 01-.774.267h2.22a.744.744 0 00.224-.426c-.643.06-.936-.23-1.431-.318zm-9.185-19.637c-.143-.012-.141.058-.055.106 1.997.537 2.55 3.268 2.55 3.268s.05.116.077.022c.015-.051-.027-.383-.027-.383s-.497-3.402-2.545-3.013zm-.28-8.117c-.924-.12-1.854.135-2.385.477-1.436 1.72-1.94 5.788-.795 8.27.117-1.09-.371-2.44-.318-3.817.091-2.379 1.136-4.472 3.737-4.214.616.06.948.423 1.432.716.391-.779-.788-1.32-1.67-1.433v.001zm-8.269-4.215c-.2 1.43-.708 3.356-.318 4.85.633-.435.392-1.551.398-2.386a39.11 39.11 0 01.05-1.973c.048-.812.415-2.876.829-4.067.506-1.46 1.542-2.707 2.063-3.9-1.783 1.998-2.69 5.025-3.02 7.476l-.001-.001v.001zm30.14 32.288a3.36 3.36 0 01-.642.425h.529a1.87 1.87 0 00.43-.983c-.329-.037-.21.371-.318.557zm-30.3-1.194c-1.642.096-2.963-.513-4.055-1.431.222-.808 1.125-.453 1.67-.478 2.106-.092 4.582-.545 6.283-1.033.38.257.917.642 1.51.795.355.092.855-.17 1.034.318-1.634.841-4.18 1.697-6.44 1.83h-.001zm-6.202-.08c-2.67.13-4.973-.396-7.476-1.033-1.63-.416-3.683-1.252-4.135-2.466.064-.016.08-.08.16-.08 2.24.804 4.84 1.533 7.633 1.91 2.189.294 4.091.418 5.726 1.271-.412.43-1.243.368-1.909.399v-.001zm-12.407-4.85c-2.108-.925-4.044-2.407-5.407-4.215-1.214-1.61-2.55-3.74-2.147-6.68.236-1.73 1.346-3.988 3.579-3.578.466 1.15.72 2.512 1.351 3.498.068.015.075-.03.08-.08.004-.393.315-.48.398-.794 2.682 3.706 5.91 6.867 10.814 8.35-.061.512.118.783.08 1.273-.385.08-2.22-.585-2.783-.796-2.624-.982-5.232-2.501-6.919-4.612-.682-.853-.92-1.939-1.511-3.022-.787 1.049-.004 2.942.716 3.896 2.035 2.7 6.728 4.663 10.417 5.25.3 1.21 1.117 1.905 2.148 2.385.059.868.566 1.29.795 1.988-2.927-.26-6.219-1.082-8.589-1.908-1.004-.35-2.118-.559-3.02-.954h-.002zm2.625-28.868c-.087 1.06-.493 2.89-.238 4.294-4.103 2.434-1.297 8.596.636 11.372.54.774 1.262 1.516 1.988 2.227.944.924 1.854 1.789 3.101 2.068-.072.511-.403.762-.477 1.192-.268 1.568.81 2.544 1.114 3.42-4.227-1.23-7.312-4.25-9.702-7.555-1.088-1.504-2.62-3.528-3.022-5.806-.984-5.554 1.426-10.265 6.6-11.212zm6.614 22.883c.085.004.182.026.225.1 1.503 1.494 3.809 2.391 6.283 2.942.841.187 1.963.17 2.704.478.412.17.68.64 1.113.795-.045.601.44.672.477 1.193-4.059.301-10.723-.006-10.895-5.249.014-.299.06-.242.092-.26zm11.916 6.78c.52.193 1.163.031 1.43.477-.314.59-1.09.437-1.669.556-2.845.589-6.645 1.222-8.668-.635-.513-.47-.825-1.175-1.034-1.909a.373.373 0 00.08-.239c1.674.667 3.498 1.1 5.567 1.193.994.045 2.183-.22 3.26 0 .38.079.64.41 1.033.556h.001zm14.075 3.181c.063.275-.088.336-.158.477-1.169.753-2.97 1.357-4.772.796.061-.188.098-.568.318-.796 1.644-.299 2.603-1.311 4.692-.954-.017-.228.02-.404.16-.477 1.333-.707 2.913-1.168 4.055-2.068-.877.193-1.693.188-2.386-.16-.092.623.485.576.715.876-1.227.498-3.018 1.77-4.373.716-.063.327.121.407.08.715-1.47.793-3.855 1.558-5.726.636.034-.284.2-.436.397-.556 1.986-.083 3.226-1.576 5.249-1.113.12-.197.163-.474.397-.558 1.214-.243 1.85-1.065 3.34-1.033-.096-.441.357-.333.398-.636a6.282 6.282 0 01-1.829.16c-.843-.912.744-1.062 1.033-1.592-.712.525-1.723.54-2.863.477.03.773-.786.699-1.113 1.114.786-.201 1.652-.728 2.625-.477-.123.34.059.835.318 1.034-.85.548-2.242.97-3.42.715-.22-.035.063.433-.158.398-1.915.59-4.234 1.876-6.6 1.033-.1.258.256.061.158.319-.724.135-1.003-.686-.557-1.034 2.717-.04 4.266-1.249 6.999-1.273.089-.284.582-.58.476-.795-.432.298-1.416.475-1.988.159.1.242.061.309-.079.477-2.007.509-4.123 1.253-6.68.954-.31-.358-.902-.659-1.273-.716.029-.236.046-.484.239-.556 3.075.239 5.028-.645 7.793-.715.941-1.313 3.62-.887 4.772-1.99-1.027.173-1.845.732-2.942.398-.554.993-2.44 1.344-3.34.478-.254.337.352.463.159.716-3.233.61-8.522 1.788-9.544-1.75.114-.019.135-.13.239-.159 2.53 1.407 5.97.936 9.145.796.236-.057.127-.458.398-.478 1.003-.11 1.622-.605 2.863-.477.588-.393 1.342-.619 2.148-.795-.011-.196-.013-.383.079-.477-.664.026-1.28.008-1.67-.239.077.507.852.315 1.113.636-.909.315-2.302.624-3.181.08-.263.238.416.496.239.636-.734.359-2.028.582-2.863.16-.167.07-.028.448-.24.476-4.248.37-9.239.474-9.701-3.896-.363-.098.008.537-.238.556-3.262-1.185-5.95-3.244-7.476-6.203-.168-.325-.288-.798-.398-1.272-.102-.442-.099-1.159-.397-1.192-.239 1.794.256 3.357 1.273 4.532.201.234.845.92.953 1.034 1.632 1.716 4.18 2.861 6.045 3.896-.223.948.432 1.41.397 1.91-3.2-.36-7.04-1.634-9.146-3.58-.829-.766-1.15-1.867-1.272-3.18-.009.097-.024.188-.159.158-.272-.213-.954-.666-1.114-.795-1.317-1.062-2.777-2.798-3.896-4.692-1.402-2.373-3.773-7.27-.636-9.065.116 4.09 1.86 7.476 3.579 10.18.698 1.099 1.428 2.348 2.624 2.783.012-.253.18-.35.158-.636-3.884-3.671-8.284-13.438-4.134-19.723 1.732-2.624 4.675-4.249 8.588-3.579.73.078.39.237.24.557-.645 1.159-1.272 2.334-1.591 3.818-.445.376-1.074.57-1.353 1.113.462-.11.816-.703 1.353-.478-.524 3.281-.36 7.267.317 10.18.164.702.115 1.617.716 1.988.132-.12.27-.049.318-.158-.883-3.05-1.858-7.015-1.192-11.054.72-4.37 4.227-8.105 8.589-8.59 1.789-.198 3.693.336 4.77 1.432-1.313.296-2.401 1.719-3.736 2.147-.787.252-1.603.21-2.228.637-.553.378-.806.935-1.192 1.59 1.006-.913 2.076-2.256 3.897-1.67.98-.901 2.085-1.709 3.227-2.449l.033-.016c.261-.137.637-.159.716-.478-1.415-.965-3.048-1.623-5.01-1.59-2.86.048-4.984 1.183-6.442 2.386a.4.4 0 00-.063.06c-1.168-.357-2.198-.743-3.516-.538-3.75.587-6.81 3.822-8.031 6.84-5.85.791-9.26 7.27-7.237 13.52-1.533 1.36-3.159 2.442-3.66 4.688-.074.33-.094.503-.125.74-.626 4.894 3.119 8.867 5.533 11.427.235-.19.394-.455.715-.557.845.72 1.54 1.588 2.545 2.147.087.33.281.65.477.795 2.524 1.875 8.685 2.227 13.042 1.83.304.757 1.34 1.15 2.09 1.46h2.266c-.074-.034-.171-.068-.22-.13-.19-.465-.63-.356-.637-.853 2.533-.436 5.055-.883 7.316-1.59.602.69 2.12.026 2.704.476.11.561-.67.632-1.113.796-1.007.371-2.26.926-3.568 1.3h1.512a15.869 15.869 0 001.737-.584c.461-.19.92-.591 1.432-.637.721-.064 1.567.429 2.386.08.064.36.28.569.318.954-.115.063-.231.125-.348.187h2.358a1.192 1.192 0 01-.499-.584c1.2-.232 2.244-.62 3.102-1.193 1.592.779 2.53-.758 3.419-1.432-1 .342-2.054 1.674-3.26.636l.001.002zm8.668 2.148c-1.39.459-4.218.37-4.453-1.273-.091-.64.291-1.923.716-2.386.164-.18 1.08-.823 1.67-1.033.697-.25 1.745-.166 2.306 0-.99-2.723-4.026-3.821-6.52-4.772 2.05 1.315 4.7 2.032 5.884 4.214-1.737.066-2.83.776-3.737 1.67-.335-.221-.823-.29-1.115-.556-.092.756.532.794 1.115.875-.933 1.11-.568 2.97.228 3.686h4.804c.675-.292 1.31-.668 1.806-1.221-1.027-.276-1.804.497-2.704.796zm13.335.425h.263a7.479 7.479 0 00-.396-.426 1.9 1.9 0 00.132.426zm-4.825-2.414c.15.271.486.7.397.955-.998.147-2.376.206-2.783-.478-.691-.059-1.884.22-2.545-.159-.251.253-.639.368-.795.716.339.15.631-.353 1.034-.398.77.227 1.757.55 2.306.16.58.602 1.586.32 2.147.874-.033.343.04.58.188.744a.5.5 0 00.05.051 1.259 1.259 0 01-.002-.05c-.043-.718.248-1.098.638-1.38.638.523 1.576.625 2.466.715-.745-.421-1.694-.639-2.466-1.034-.21-.19-.392-.824-.637-.715l.002-.001zm3.737-.08c-.137.347-.244.743.08.954a.57.57 0 00-.24.16c.299.122.75.774 1.035.397-.658-.202-.643-1.09-.875-1.51v-.001zm.875 2.386c-.413-.304-.758-.674-1.272-.875.323.34.812.936 1.272.875zM18.725 22.092c1.347-.769-.204-2.38-.716-3.738-.9-2.388-1.163-5.841-.478-8.032-1.76 3.585-.38 8.81 1.194 11.77zm41.034 18.131c.603.02 1.263.364 1.512.478-.097-.515-.933-.712-1.512-.478zm1.51 1.51c.017-.228-.019-.403-.158-.476-.056.188-.182.504.16.477h-.001zm.32.716c-.116-.282-.484-.311-.717-.476.08.32.448.348.717.477zm-4.454-1.113c.51.1.389.83.716 1.113.56-.83 1.946.208 2.624 0-.829-.257-1.574-.599-2.545-.715-.221-.149-.081-.661-.477-.636.127.313-.344.028-.318.238zm16.063-7.077c1.127 1.042.224 4.773-1.192 4.295v-.08c.628-2.559-1.568-2.052-3.738-2.147-1.23-.055-2.724-.198-3.658-.08-.784.1-2.143.458-2.067 1.193.927.223 1.874-.508 3.101-.557 1.51-.06 3.499.24 3.499.24.864.143 1.736.278 2.625.397.244.117-.068.201-.24.238-.17.037-1.926-.205-3.654-.458-.982-.152-2.581-.26-3.502.06-.623.217-.918.663-1.512.557-.402-.072-.516-.503-.874-.557-.451 1.139.794 1.426 1.432 1.91 1.314.995 2.059 2.952 3.419 3.737 1.341-1.761 3.598-2.605 5.248-4.056.116.122.408.07.637.08.975-.85 1.886-4.176.477-4.772zm-21.391 1.272l.319-.716c.348-.552.84-.961 1.112-1.59.31.354.551.775 1.352.637.298 1.264-.84 1.532-2.067 1.51.013.65.664.418 1.193.398-.084.402.18.455.159.795.61.36 1.155.224 1.67-.08-1.053 1.392-2.738-.24-3.738-.794v-.16zm13.202-1.903c-.675-.147-.833-.811-1.273-1.194.809-.298 1.548.387 1.272 1.194h.001zm3.18-.957c-.27-.021-.645.061-.796-.08.111-.101.008-.262.159-.476v-.004a.81.81 0 000-.47v-.006c-.354-.627-.699-.888-1.35-1.272-.852-.502-1.501-.753-2.943-.636-2.928.237-7.114.674-9.225 2.226-1.387 1.02-1.946 2.55-2.704 3.578-3.584-2.25-9.05-4.43-11.61-7.712-1.309-1.678-2.422-4.206-1.432-6.84.271-.233.386-.621.637-.875.038-.352-.11-.395 0-.635 1.322-1.224 2.31-2.78 4.135-3.5.546.522 1.585.36 2.306-.16 1.468-1.054 3.234-4.272 2.359-6.408a4.227 4.227 0 00-1.66-2.182 1.18 1.18 0 00-.268-.142 7.033 7.033 0 00-.59-.253c.131.133.283.248.44.355v.003a1.819 1.819 0 00.109.07c.304.208 1.183.88 1.603 1.955.237.952.283 2.244-.243 2.865-.2-.808-.237-1.232-.578-2.103a6.666 6.666 0 00-1.092-1.952c-1.598-2.057-6.197-1.227-7.714.239 2.012-.752 4.643-1.659 6.6-.557.983.552 1.682 2.028 1.75 3.26.12 2.197-1.52 3.42-3.102 4.215.163-.305.016-.608 0-.955-.41-.378-1.434-.389-2.067-.237-1.595.378-2.708 2.118-3.181 3.339.089.258.693.416.556.636-.17-.147-.582-.054-.874-.08-1.353.8-.533 2.52-.795 4.136-.042.255-.236.431-.24.636-.003.384.363.737.24 1.034.324.179.594.412.954.557.726 2.049 1.498 3.88 2.862 5.169 3.029 2.274 7.62 4.567 11.293 6.6.682.377 1.386 1.057 2.068 1.273.995.315 1.397-.284 1.988-.557.608.4 1.48.959 2.385.795-.932-.242-2.255-.4-2.067-1.51-.449.023-.761.636-1.272.635-.483-.001-.973-.423-.954-.875.043-1.056 1.634-.744 2.147-1.351a3.658 3.658 0 01-1.034.08c-.21-.163-.098-.645-.239-.875-.587.057-1.012-.048-1.113-.478.195-.574.58-.957 1.193-1.113.33.227.498.615.795.874.268-.14-.002-.407.08-.795-.075-.191-.578.048-.478-.317 1.486-1.19 5.642-1.738 8.504-1.908h.004c1.866-.11 3.085.972 3.58 2.148-1.83-1.018-4.773-.933-7.078-.716-1.173.11-2.218.01-3.023.478.984-.055 3.056.059 3.42.08.961.023 1.523-.043 2.307.158h.079c.465 1.046 1.54 1.483 2.068 2.465-1.193 1.458-4.227 1.5-4.374 3.739.934-1.904 3.52-2.153 4.771-3.739.697-.522 1.614-.825 2.068-1.59h.558v.002c0 .124.476.124.476 0v-.002h.079l.003-.002h.004c.178.02.293-.021.312-.16-.15-.14-.525-.057-.795-.08l-.005.004h.003zm-18.132 5.962c-.321.41-1.298.232-1.67 0-.183.241.256.392.16.795.714-.002 1.732-.122 1.51-.795zm18.052-4.93c.347.13.492-.35.636-.16-.604.475-1.224.996-1.987 1.352-.775.362-1.694.46-2.307 1.034.836-.048 1.67-.525 2.465-.954.76-.41 1.62-.803 2.227-1.273.296-.228.434-.615.796-.715 1.184-.325 2.111.353 2.941.795-.522-.649-1.872-1.354-3.022-1.113-.254.053-.445.367-.715.477-.41.165-1.152-.013-1.034.556zm-1.988 9.383c.069.33.35.445.637.557-.098-.3-.455-.34-.637-.557zm-9.702-9.94c.008-.204.31-.114.318-.318-.101-.109-.375-.109-.477 0-.021.182.02.3.16.32v-.002zM46.24 37.6a.77.77 0 00.08.044.26.26 0 00-.08-.044zm-5.647-3.658c.38-.046.716-.133.716-.557-.583.08-.905-.102-1.351-.159-.013.49.647.307.953.477.026.211-.443-.074-.317.239zm-13.439-2.704c1.299 2.055 3.561 3.243 6.601 3.5 1.151.097 1.876-.012 2.624.397.333.015.246-.39.637-.319 1.58.123 2.477-.438 3.498-.874-.919.09-1.976.33-2.624-.159-.095.546.443.458.637.716-1.42.42-2.522-.109-3.42-.636-.227.123.165.37-.08.477-3.653-.356-7.997-1.405-7.793-5.329-.118.228-.163.527-.318.717-1.83-1.298-4.6-4.4-4.93-7.635-.306-2.981 1.513-4.115 4.214-3.817.415.14.385.464.557.715.156-.347.397-.61.477-1.033-2.917-1.2-5.845 1.193-5.806 3.896.06 4.08 3.404 6.73 5.409 8.589-.138.41-.127.654-.16 1.034.225.214.22-.249.478-.24v.001zm21.79 11.61c1.347 2.362 5.992-.505 3.897-2.305 1.244 1.818-2.236 3.398-3.897 2.306zM26.2 6.745c-1.855 2.428-2.515 6.846-2.147 10.974.715-.238.345-1.456.318-2.067-.095-2.179.204-4.117.637-5.806.311-1.218.924-2.14 1.193-3.101zM41.787 32.59c.075.245.38.675.636.477-.293-.078-.405-.338-.636-.478zM26.598 20.104c-.245 1.993.426 4.615 1.034 5.884.252.525.476 1.373 1.034 1.353-.316-1.328-1.617-3.318-1.75-5.488-.161-2.633.904-4.754 3.658-4.214.448.294.637.847 1.033 1.192.305-.545.652-1.045.876-1.67-2.562-1.622-5.546.171-5.885 2.943zm17.654 15.984c-.003.348.198.491.319.716.705.178 1.72.12 1.67-.557-.503.502-1.59.426-1.989-.159zm-1.431-2.624c.168.453 1.193.86 1.272.875-.381-.334-.738-.694-1.272-.875zM31.494 12.593c.557-2.237 1.353-3.003 1.86-3.596.66-.769 1.079-1.228 1.753-1.776.151-.123.603-.183.477-.477-1.875.8-3.348 3.146-4.043 4.979-.297.575-.473 1.357-.649 2.098-.183.772-.5 1.71-.16 2.465.418-.366.231-1.056.32-1.59.115-.705.316-1.434.442-2.103zm12.36 23.495c.441-.036.568-.388.717-.715-.668.296-1.41.065-1.91-.239.102.745.784.562 1.432.636-.023.162-.214.156-.238.318zm4.454 1.51c-.64.288-1.573.247-1.989.045.124.1.142.307.238.433.65-.093 1.538.052 1.75-.477z" fill="#FFF" mask="url(#b)"/></g><path d="M91.237 18.898c.03 1.232.18 1.622.586 1.742.286.075.616.09.751.09.075 0 .12.03.12.09 0 .09-.09.121-.27.121-.856 0-1.457-.046-1.592-.046-.136 0-.766.046-1.441.046-.15 0-.241-.015-.241-.12 0-.06.045-.09.12-.09.12 0 .391-.016.616-.091.375-.104.45-.54.45-1.907l.015-8.604c0-.586.045-.75.166-.75.12 0 .375.33.526.48.225.255 2.462 2.673 4.775 5.15 1.487 1.592 3.123 3.424 3.603 3.92l-.164-7.63c-.016-.975-.12-1.306-.586-1.426a4.032 4.032 0 00-.736-.075c-.105 0-.12-.044-.12-.105 0-.09.12-.105.3-.105.675 0 1.396.046 1.562.046.165 0 .66-.046 1.276-.046.166 0 .27.015.27.105 0 .06-.06.105-.165.105-.075 0-.18 0-.36.046-.495.105-.556.434-.556 1.336l-.03 8.8c0 .992-.03 1.066-.135 1.066-.12 0-.3-.165-1.096-.96-.165-.151-2.327-2.36-3.92-4.07a310.854 310.854 0 01-3.92-4.311l.192 7.192.004.001zm19.146-2.928c.075 0 .075-.045.06-.105l-1.427-4.055c-.075-.226-.15-.226-.225 0l-1.322 4.055c-.03.074 0 .105.045.105h2.869zm-1.562-6.007c.18-.495.24-.586.33-.586.09 0 .15.076.33.541.226.57 2.583 6.772 3.5 9.055.54 1.336.976 1.577 1.291 1.667.226.074.45.09.601.09.09 0 .15.015.15.09 0 .09-.135.12-.3.12-.225 0-1.322 0-2.358-.03-.286-.014-.451-.014-.451-.105 0-.06.045-.09.106-.104.09-.03.18-.166.09-.406l-1.397-3.694c-.03-.06-.06-.09-.135-.09h-3.228c-.076 0-.121.045-.151.12l-.901 2.657c-.135.376-.21.736-.21 1.007 0 .3.316.435.57.435h.15c.106 0 .151.03.151.09 0 .09-.09.12-.225.12-.361 0-1.007-.044-1.171-.044-.166 0-.992.044-1.698.044-.195 0-.285-.03-.285-.12 0-.06.06-.09.135-.09.105 0 .316-.015.435-.03.692-.09.992-.66 1.262-1.412l3.406-9.325h.003zm12.513 6.622c0 1.442 0 2.627.075 3.258.045.436.135.767.585.826.211.03.541.06.677.06.09 0 .12.046.12.09 0 .076-.076.12-.24.12-.826 0-1.773-.044-1.847-.044-.076 0-1.022.045-1.472.045-.165 0-.24-.03-.24-.12 0-.045.03-.09.12-.09.135 0 .315-.03.45-.06.3-.06.375-.39.436-.827.075-.63.075-1.816.075-3.258v-6.352l-2.223.03c-.93.014-1.291.12-1.532.48-.164.255-.21.361-.255.466-.045.12-.09.15-.15.15-.045 0-.075-.045-.075-.135 0-.15.3-1.442.33-1.562.03-.09.09-.285.15-.285.106 0 .256.15.661.18.436.045 1.006.075 1.186.075h5.632c.96 0 1.367-.15 1.487-.15.075 0 .075.09.075.18 0 .45-.045 1.487-.045 1.652 0 .135-.045.195-.105.195-.076 0-.106-.045-.121-.255l-.012-.164c-.06-.45-.406-.795-1.848-.825l-1.892-.03v6.35h-.002zm9.937 0c0 1.442 0 2.627.075 3.258.045.436.135.767.586.826.21.03.54.06.675.06.091 0 .121.046.121.09 0 .076-.075.12-.24.12-.826 0-1.772-.044-1.847-.044-.075 0-1.022.045-1.472.045-.165 0-.24-.03-.24-.12 0-.045.03-.09.12-.09.135 0 .316-.03.45-.06.301-.06.376-.39.436-.827.075-.63.075-1.816.075-3.258v-2.643c0-2.343 0-2.763-.03-3.243-.03-.51-.18-.766-.51-.842a1.992 1.992 0 00-.466-.06c-.06 0-.12-.03-.12-.09 0-.09.075-.12.24-.12.495 0 1.442.046 1.517.046.075 0 1.021-.046 1.472-.046.165 0 .24.03.24.12 0 .06-.06.09-.12.09-.106 0-.195.016-.375.046-.406.075-.526.33-.556.856-.03.48-.03.9-.03 3.243v2.643zm10.724 3.995c1.352 0 4.145-.78 4.145-5.15 0-3.605-2.193-5.542-4.565-5.542-2.508 0-4.385 1.652-4.385 4.941 0 3.5 2.103 5.752 4.805 5.752v-.001zm-.315-11.202c3.378 0 5.901 2.131 5.901 5.63 0 3.364-2.372 6.142-5.991 6.142-4.115 0-5.827-3.198-5.827-5.901 0-2.434 1.771-5.872 5.917-5.872zm11.135 9.52c.03 1.232.18 1.622.586 1.742.285.075.616.09.75.09.076 0 .12.03.12.09 0 .09-.09.121-.27.121-.856 0-1.456-.046-1.592-.046-.134 0-.766.046-1.44.046-.151 0-.242-.015-.242-.12 0-.06.045-.09.121-.09.12 0 .39-.016.615-.091.376-.104.451-.54.451-1.907l.015-8.604c0-.586.045-.75.165-.75.12 0 .376.33.525.48a790.55 790.55 0 004.776 5.15c1.487 1.592 3.123 3.424 3.604 3.92l-.165-7.63c-.015-.975-.12-1.306-.586-1.426a4.02 4.02 0 00-.736-.075c-.105 0-.12-.044-.12-.105 0-.09.12-.105.301-.105.676 0 1.396.046 1.561.046.166 0 .66-.046 1.277-.046.165 0 .27.015.27.105 0 .06-.06.105-.165.105-.075 0-.18 0-.36.046-.496.105-.556.434-.556 1.336l-.03 8.8c0 .992-.03 1.066-.136 1.066-.12 0-.3-.165-1.095-.96-.166-.151-2.328-2.36-3.92-4.07a315.529 315.529 0 01-3.92-4.311l.195 7.192.001.001zm19.145-2.928c.074 0 .074-.045.059-.105l-1.427-4.055c-.075-.226-.15-.226-.225 0l-1.322 4.055c-.03.074 0 .105.046.105h2.868zm-1.563-6.007c.18-.495.24-.586.33-.586.09 0 .15.076.33.541.226.57 2.584 6.772 3.5 9.055.54 1.336.976 1.577 1.292 1.667.224.074.45.09.6.09.09 0 .15.015.15.09 0 .09-.135.12-.3.12-.226 0-1.322 0-2.358-.03-.285-.014-.45-.014-.45-.105 0-.06.044-.09.104-.104.09-.03.18-.166.09-.406L172.29 16.6c-.03-.06-.06-.09-.135-.09h-3.229c-.075 0-.12.045-.15.12l-.901 2.657c-.135.376-.21.736-.21 1.007 0 .3.315.435.57.435h.15c.105 0 .15.03.15.09 0 .09-.09.12-.225.12-.36 0-1.006-.044-1.171-.044-.165 0-.991.044-1.697.044-.195 0-.286-.03-.286-.12 0-.06.061-.09.136-.09.105 0 .315-.015.435-.03.691-.09.992-.66 1.262-1.412l3.406-9.325h.003zm11.645 6.653c0 2.208.06 3.168.33 3.439.24.24.63.345 1.802.345.796 0 1.457-.015 1.817-.45.196-.24.345-.616.39-.902.016-.12.046-.195.136-.195.075 0 .09.06.09.226 0 .165-.105 1.066-.226 1.501-.105.345-.15.405-.946.405-2.162 0-3.153-.09-4.024-.09-.135 0-1.021.046-1.472.046-.164 0-.24-.03-.24-.12 0-.045.03-.09.121-.09.135 0 .315-.03.45-.06.3-.06.376-.39.436-.827.074-.63.074-1.817.074-3.258v-2.644c0-2.342 0-2.762-.029-3.242-.03-.511-.15-.752-.646-.856a2.794 2.794 0 00-.51-.046c-.061 0-.121-.03-.121-.09 0-.09.075-.12.24-.12.676 0 1.622.045 1.697.045.075 0 1.172-.045 1.622-.045.165 0 .24.03.24.12 0 .06-.06.09-.12.09a3.4 3.4 0 00-.495.046c-.436.074-.556.33-.586.856-.03.48-.03.9-.03 3.242v2.674zM94.974 33.06c.08 0 .08-.048.064-.112l-1.52-4.32c-.079-.24-.16-.24-.24 0l-1.407 4.32c-.031.08 0 .111.048.111h3.056zm-1.663-6.399c.191-.528.256-.624.351-.624.097 0 .16.08.353.575.24.609 2.75 7.216 3.726 9.647.576 1.423 1.04 1.68 1.376 1.775.24.08.48.097.64.097.096 0 .16.015.16.095 0 .097-.144.128-.32.128-.24 0-1.407 0-2.511-.031-.305-.016-.48-.016-.48-.113 0-.064.048-.095.112-.111.096-.033.191-.177.096-.432l-1.488-3.936c-.032-.063-.064-.096-.144-.096h-3.441c-.08 0-.128.048-.16.128l-.96 2.831c-.144.4-.224.785-.224 1.073 0 .32.336.464.608.464h.16c.112 0 .16.032.16.095 0 .097-.096.128-.24.128-.384 0-1.072-.047-1.247-.047-.177 0-1.057.047-1.808.047-.208 0-.304-.031-.304-.128 0-.063.064-.095.144-.095.111 0 .336-.016.464-.032.735-.096 1.055-.705 1.344-1.505l3.63-9.933h.003zm12.069 5.631c0 .08.031.143.111.191.24.144.976.256 1.68.256.384 0 .832-.047 1.2-.303.56-.385.976-1.248.976-2.464 0-2-1.056-3.199-2.768-3.199-.48 0-.912.048-1.072.096a.191.191 0 00-.127.192v5.23zm-1.282-1.391c0-2.496 0-2.944-.031-3.456-.032-.544-.16-.8-.688-.912a2.967 2.967 0 00-.544-.048c-.064 0-.128-.032-.128-.096 0-.095.08-.128.256-.128.72 0 1.728.049 1.808.049.176 0 1.391-.049 1.887-.049 1.009 0 2.08.096 2.927.704.4.289 1.104 1.072 1.104 2.176 0 1.184-.496 2.367-1.935 3.695 1.311 1.68 2.399 3.103 3.327 4.095.864.912 1.552 1.088 1.951 1.152.305.048.528.048.624.048.08 0 .144.048.144.096 0 .096-.095.128-.384.128h-1.135c-.896 0-1.296-.08-1.712-.304-.688-.368-1.248-1.152-2.16-2.351-.671-.88-1.423-1.952-1.743-2.368-.064-.064-.112-.096-.208-.096l-1.968-.032c-.08 0-.111.047-.111.128v.384c0 1.536 0 2.799.08 3.47.048.465.143.816.623.88.224.033.576.065.72.065.096 0 .128.048.128.096 0 .08-.08.128-.256.128-.88 0-1.888-.048-1.967-.048-.017 0-1.025.048-1.505.048-.175 0-.255-.033-.255-.128 0-.048.032-.096.128-.096.144 0 .335-.032.48-.065.32-.064.4-.415.464-.88.08-.671.08-1.934.08-3.47V30.9zm13.383 5.949c-1.551-1.39-1.935-3.215-1.935-4.734 0-1.072.368-2.944 1.792-4.368.959-.959 2.415-1.711 4.878-1.711.64 0 1.536.048 2.32.191.607.112 1.12.209 1.631.24.176.016.209.08.209.177 0 .128-.049.32-.081.895-.032.528-.032 1.408-.048 1.648-.015.24-.048.336-.144.336-.112 0-.128-.112-.128-.336 0-.623-.255-1.28-.671-1.631-.56-.48-1.792-.912-3.2-.912-2.127 0-3.12.623-3.679 1.167-1.168 1.12-1.44 2.544-1.44 4.175 0 3.055 2.352 5.855 5.775 5.855 1.2 0 2.144-.144 2.784-.8.335-.351.543-1.056.59-1.344.033-.176.065-.239.16-.239.082 0 .113.111.113.24 0 .111-.192 1.503-.352 2.047-.095.304-.128.336-.415.464-.64.256-1.856.368-2.88.368-2.398.002-4.014-.592-5.278-1.726v-.002zm23.584-3.135c0 1.535 0 2.8.08 3.471.048.463.143.816.623.88.224.031.577.064.72.064.096 0 .129.048.129.095 0 .081-.08.128-.257.128-.88 0-1.887-.047-1.967-.047-.08 0-1.088.047-1.568.047-.175 0-.256-.031-.256-.128 0-.047.033-.095.128-.095.144 0 .336-.033.48-.064.32-.064.4-.416.464-.88.08-.672.08-1.936.08-3.471v-1.68c0-.064-.048-.096-.097-.096h-6.782c-.047 0-.096.016-.096.096v1.68c0 1.535 0 2.8.08 3.471.048.463.144.816.624.88.224.031.576.064.72.064.096 0 .128.048.128.095 0 .081-.08.128-.256.128-.88 0-1.887-.047-1.968-.047-.08 0-1.087.047-1.567.047-.176 0-.256-.031-.256-.128 0-.047.032-.095.128-.095.144 0 .336-.033.48-.064.32-.064.4-.416.464-.88.08-.672.08-1.936.08-3.471v-2.816c0-2.495 0-2.944-.032-3.455-.033-.544-.16-.8-.688-.912a2.962 2.962 0 00-.544-.048c-.064 0-.128-.031-.128-.095 0-.097.08-.128.256-.128.72 0 1.728.047 1.807.047.08 0 1.089-.047 1.568-.047.176 0 .257.03.257.128 0 .064-.065.095-.129.095-.112 0-.208.016-.4.048-.431.08-.56.352-.591.912-.033.511-.033.96-.033 3.455v.336c0 .08.049.096.096.096h6.783c.048 0 .096-.016.096-.096V30.9c0-2.495 0-2.944-.032-3.455-.032-.544-.16-.8-.688-.912a2.962 2.962 0 00-.544-.048c-.064 0-.127-.031-.127-.095 0-.097.08-.128.255-.128.72 0 1.728.047 1.808.047.08 0 1.087-.047 1.568-.047.176 0 .255.03.255.128 0 .064-.064.095-.127.095-.112 0-.208.016-.4.048-.432.08-.56.352-.593.912-.031.511-.031.96-.031 3.455v2.816zm7.922 0c0 1.535 0 2.8.08 3.471.048.463.144.816.624.88.223.031.576.064.72.064.095 0 .128.048.128.095 0 .081-.08.128-.257.128-.879 0-1.887-.047-1.967-.047-.08 0-1.088.047-1.568.047-.175 0-.255-.031-.255-.128 0-.047.032-.095.128-.095.144 0 .335-.033.479-.064.32-.064.4-.416.464-.88.08-.672.08-1.936.08-3.471v-2.816c0-2.495 0-2.944-.032-3.455-.032-.544-.192-.816-.543-.895a2.072 2.072 0 00-.496-.065c-.065 0-.129-.031-.129-.095 0-.097.08-.128.256-.128.528 0 1.536.047 1.616.047.08 0 1.088-.047 1.568-.047.176 0 .256.03.256.128 0 .064-.065.095-.128.095-.112 0-.208.016-.4.048-.432.08-.56.352-.592.912-.032.511-.032.96-.032 3.455v2.816zm10.965 2.689c.928-2.145 3.072-7.727 3.424-8.879.08-.24.143-.463.143-.607 0-.128-.048-.288-.208-.369-.191-.064-.43-.064-.607-.064-.096 0-.177-.016-.177-.096 0-.096.096-.127.353-.127.64 0 1.375.048 1.568.048.095 0 .783-.048 1.247-.048.176 0 .272.031.272.112 0 .08-.064.111-.192.111-.112 0-.464 0-.768.193-.208.144-.448.415-.88 1.503-.176.448-.976 2.368-1.79 4.335-.977 2.335-1.697 4.063-2.064 4.847-.449.96-.513 1.216-.673 1.216-.192 0-.272-.224-.576-.992l-3.919-9.806c-.352-.895-.591-1.072-1.152-1.232-.24-.064-.511-.064-.607-.064-.096 0-.128-.048-.128-.111 0-.097.16-.112.416-.112.768 0 1.68.048 1.872.048.16 0 .88-.048 1.487-.048.288 0 .432.031.432.112 0 .08-.048.111-.16.111-.176 0-.464.016-.608.08a.32.32 0 00-.208.32c0 .208.192.704.432 1.328l3.07 8.193v-.002zm10.372-5.504c0-2.495 0-2.943-.032-3.454-.032-.544-.16-.8-.688-.912a2.961 2.961 0 00-.543-.049c-.065 0-.129-.032-.129-.095 0-.097.08-.129.256-.129.72 0 1.728.048 1.808.048.112 0 3.295 0 3.663-.016.304-.015.56-.048.688-.08.08-.016.144-.08.224-.08.048 0 .063.064.063.145 0 .112-.08.303-.127.75-.016.161-.048.865-.08 1.057-.016.08-.049.176-.112.176-.096 0-.128-.08-.128-.208 0-.112-.016-.384-.096-.576-.112-.255-.272-.448-1.136-.543-.272-.032-2.015-.049-2.191-.049-.064 0-.096.049-.096.16v4.415c0 .112.015.16.096.16.208 0 2.175 0 2.543-.032.384-.032.608-.064.752-.224.112-.128.176-.208.24-.208.048 0 .08.033.08.129 0 .095-.08.368-.128.895-.032.32-.064.912-.064 1.024 0 .128 0 .304-.112.304-.08 0-.112-.064-.112-.144 0-.16 0-.32-.064-.528-.064-.224-.208-.495-.832-.56-.432-.047-2.015-.08-2.288-.08-.08 0-.11.049-.11.112v1.409c0 .543-.017 2.398 0 2.734.046 1.104.286 1.312 1.854 1.312.416 0 1.12 0 1.535-.176.416-.176.609-.495.72-1.152.032-.175.064-.24.144-.24.096 0 .096.128.096.24 0 .128-.128 1.216-.208 1.552-.112.416-.24.416-.864.416-2.415 0-3.487-.096-3.95-.096-.08 0-1.088.047-1.568.047-.177 0-.256-.03-.256-.127 0-.048.032-.096.127-.096.145 0 .337-.032.48-.064.32-.063.4-.416.464-.88.08-.671.08-1.935.08-3.47V30.9zm9.688 7.246c-.224-.112-.24-.176-.24-.608 0-.8.064-1.438.08-1.695.016-.176.048-.256.128-.256.096 0 .112.048.112.176 0 .144 0 .367.048.592.24 1.183 1.296 1.632 2.368 1.632 1.535 0 2.287-1.105 2.287-2.128 0-1.104-.464-1.744-1.84-2.88l-.72-.592c-1.694-1.39-2.079-2.382-2.079-3.47 0-1.713 1.28-2.88 3.311-2.88.624 0 1.089.064 1.487.16.305.064.434.08.561.08.128 0 .16.032.16.112s-.064.608-.064 1.696c0 .256-.032.368-.112.368-.096 0-.111-.08-.128-.208-.016-.192-.112-.624-.208-.8-.096-.176-.528-.848-2-.848-1.104 0-1.967.688-1.967 1.856 0 .911.447 1.455 1.951 2.687l.449.352c1.887 1.488 2.335 2.48 2.335 3.759 0 .656-.256 1.872-1.36 2.655-.688.48-1.551.672-2.415.672-.75.001-1.486-.11-2.143-.43l-.001-.002z" fill="#FFF"/></g></svg>