<svg width="53" height="32" xmlns="http://www.w3.org/2000/svg" xmlns:xlink="http://www.w3.org/1999/xlink"><defs><path id="a" d="M0 .326h52.205V32H0z"/></defs><g fill="none" fill-rule="evenodd"><mask id="b" fill="#fff"><use xlink:href="#a"/></mask><path d="M28.723 22.228c-.3.545-1.038.391-1.404 0 .08.678 1.045.777 1.404.28.172.092.243.282.45.337-.038-.343-.45-.397-.45-.617zm-.112-.169c-.316-.358-.56-.788-.842-1.179-.29.332.047.55.224.674.343.241.317.693.618.505zm1.292-17.915c-.7.143-1.338.348-2.022.506-.221-.099-.598-.336-.842-.225.202.116.525.111.617.337-.925.558-2.141 1.063-2.92 2.022-.928 1.142-1.888 2.728-2.022 4.268-.022.251-.123.814.225.842.11-1.586.494-2.62 1.123-3.706 1.265-2.182 3.293-3.69 6.57-3.65.254.002.897.222.618-.28 0 0-.388-.466-.954-1.068-.81-.92-2.06-1.612-3.763-1.741-.597-.046-1.32-.083-1.74.28 2.555-.263 4.43.617 5.11 2.415zM4.182 28.911c-.074-.209.074-.496-.225-.617a2.426 2.426 0 00.112 1.403c.332.823.858 1.583 1.464 2.267h2.765c-1.09-.306-2.054-.732-2.6-1.312-.58-.474-1.238-.96-1.516-1.741zm20.723-5.503c.158-.01.07-.267.28-.225 1.155-.083 1.722.279 2.696-.113-.925.25-1.538-.482-2.078-.73.064.348.34.485.562.674a2.087 2.087 0 01-2.078-.786c-.21.278.235.503.112.674-1.652-.69-3.784-2.008-3.032-4.212-1.398 2.38 1.566 4.264 3.538 4.718zm.392-2.697c-.216.691.38 1.04.843 1.236-.362-.33-.756-.63-.843-1.236zm-1.122-2.808c-.35-.246-.596.559-.843.787-.091-.171-.173-.351-.393-.393.068.287.31.4.393.673.129.818.34 1.423.786 1.91.26.283.622.657.955.617-.547-.762-1.275-1.346-1.572-2.358.112-.524.305-.967.673-1.236zm7.356 13.535c.03.199-.047.29-.168.337a5.26 5.26 0 01-.547.189h1.568a.526.526 0 00.158-.301c-.454.042-.661-.163-1.01-.225zm-6.486-13.867c-.101-.009-.1.04-.039.074 1.41.38 1.8 2.309 1.8 2.309s.036.081.056.015c.01-.036-.02-.27-.02-.27s-.35-2.403-1.797-2.128zm-.197-5.732c-.653-.085-1.31.095-1.685.337-1.014 1.214-1.37 4.087-.561 5.84.082-.77-.263-1.723-.225-2.696.065-1.68.803-3.158 2.64-2.976.434.043.669.3 1.01.506.277-.55-.556-.932-1.179-1.012zm-5.84-2.977c-.142 1.01-.5 2.37-.224 3.426.446-.308.276-1.097.28-1.686.004-.529.01-.984.035-1.393.035-.574.294-2.031.586-2.872.358-1.031 1.089-1.912 1.457-2.754-1.26 1.41-1.9 3.548-2.133 5.279h-.001zm21.284 22.801a2.373 2.373 0 01-.453.3h.373c.15-.181.267-.399.305-.693-.233-.027-.15.262-.225.393zm-21.396-.842c-1.16.067-2.094-.363-2.864-1.011.156-.571.794-.32 1.179-.338 1.487-.065 3.235-.385 4.437-.73.268.182.647.454 1.066.562.25.065.604-.12.73.225-1.154.594-2.952 1.198-4.548 1.292zm-4.381-.057c-1.885.092-3.512-.28-5.28-.73-1.15-.294-2.6-.884-2.92-1.741.046-.011.056-.056.113-.056 1.583.567 3.419 1.082 5.391 1.348 1.545.208 2.889.295 4.044.898-.291.304-.878.26-1.349.281zm-8.761-3.425c-1.49-.653-2.857-1.7-3.819-2.977-.857-1.137-1.8-2.64-1.516-4.717.167-1.222.95-2.816 2.527-2.527.33.812.509 1.774.955 2.47.047.01.052-.021.056-.056.002-.278.222-.34.28-.561 1.895 2.617 4.174 4.85 7.638 5.897-.044.362.083.553.056.898-.272.058-1.568-.413-1.965-.561-1.853-.694-3.695-1.767-4.886-3.257-.482-.602-.65-1.37-1.067-2.134-.556.74-.003 2.077.505 2.751 1.437 1.907 4.751 3.293 7.357 3.707.212.855.788 1.346 1.517 1.685.041.613.4.91.561 1.404-2.067-.184-4.392-.764-6.065-1.348-.71-.247-1.496-.394-2.133-.673l-.001-.001zM7.607 6.952c-.061.749-.348 2.042-.168 3.033-2.897 1.719-.916 6.07.449 8.03.381.548.892 1.071 1.404 1.574.667.652 1.31 1.263 2.19 1.46-.051.36-.284.538-.337.842-.19 1.107.572 1.796.787 2.415-2.985-.869-5.164-3.002-6.852-5.336-.768-1.061-1.85-2.49-2.134-4.1-.694-3.922 1.007-7.248 4.661-7.918zm4.67 16.16c.06.003.13.019.16.07 1.061 1.056 2.69 1.69 4.437 2.079.594.132 1.386.12 1.909.337.29.12.481.452.786.561-.032.425.311.475.337.843-2.866.213-7.572-.004-7.694-3.707.01-.21.043-.17.065-.184v.001zm8.416 4.788c.367.137.821.022 1.01.337-.222.417-.77.309-1.179.393-2.01.416-4.692.863-6.121-.449-.362-.332-.583-.83-.73-1.348a.264.264 0 00.056-.169c1.183.472 2.47.777 3.931.843.702.032 1.542-.156 2.303 0 .268.055.452.29.73.393zm9.94 2.247c.044.194-.063.237-.112.337-.825.531-2.098.958-3.37.562.043-.133.07-.401.225-.562 1.16-.211 1.838-.926 3.313-.674-.012-.161.014-.285.112-.337.943-.5 2.058-.825 2.864-1.46-.619.136-1.195.133-1.684-.113-.065.44.342.407.505.618-.867.352-2.132 1.25-3.089.506-.044.231.086.287.057.505-1.038.56-2.723 1.1-4.044.449.024-.2.141-.308.28-.393 1.403-.059 2.279-1.113 3.707-.786.086-.139.115-.334.281-.393.857-.172 1.306-.753 2.359-.73-.069-.312.251-.235.28-.45-.379.09-.796.14-1.291.113-.595-.644.525-.75.73-1.124-.504.371-1.217.381-2.022.337.021.546-.555.494-.786.787.555-.142 1.166-.514 1.853-.337-.087.24.042.59.225.73-.6.387-1.583.685-2.415.505-.156-.025.044.306-.112.281-1.352.417-2.99 1.325-4.661.73-.07.182.18.043.112.225-.511.095-.708-.484-.394-.73 1.92-.028 3.013-.882 4.943-.899.063-.2.411-.41.336-.561-.305.21-1 .335-1.404.112.071.17.043.218-.055.337-1.418.359-2.912.884-4.718.674a1.747 1.747 0 00-.898-.506c.02-.167.032-.342.168-.393 2.171.168 3.55-.456 5.503-.505.665-.927 2.556-.627 3.37-1.405-.725.121-1.303.517-2.078.281-.39.701-1.722.949-2.358.337-.18.239.248.327.112.506-2.283.43-6.018 1.263-6.74-1.236.08-.013.096-.092.169-.112 1.787.993 4.216.661 6.459.562.166-.04.089-.324.28-.338.709-.077 1.146-.427 2.022-.336.415-.278.948-.438 1.517-.562-.008-.138-.009-.27.056-.337-.469.019-.905.006-1.18-.168.055.357.602.222.786.449-.641.222-1.625.44-2.246.056-.186.168.294.35.169.45-.519.252-1.432.41-2.022.112-.118.05-.02.316-.169.336-3 .262-6.525.335-6.851-2.751-.256-.07.005.38-.168.393-2.304-.837-4.202-2.29-5.28-4.38-.118-.23-.203-.565-.28-.899-.073-.312-.07-.818-.281-.842-.169 1.267.18 2.37.898 3.2.143.166.598.65.674.73 1.152 1.213 2.952 2.021 4.269 2.752-.158.67.305.996.28 1.348-2.26-.253-4.972-1.153-6.458-2.527-.586-.541-.813-1.319-.9-2.246-.005.068-.016.133-.111.112-.192-.15-.674-.47-.787-.561-.93-.75-1.961-1.977-2.751-3.314-.99-1.676-2.664-5.134-.45-6.402.083 2.888 1.314 5.28 2.528 7.189.493.776 1.008 1.658 1.853 1.966.009-.179.127-.248.112-.45-2.743-2.592-5.85-9.49-2.92-13.928 1.223-1.853 3.302-3 6.065-2.527.515.055.276.167.169.393-.455.818-.898 1.648-1.123 2.696-.314.266-.758.403-.955.786.326-.077.576-.496.955-.337-.37 2.317-.255 5.131.224 7.19.115.494.08 1.14.506 1.403.093-.085.19-.035.224-.112-.623-2.154-1.312-4.954-.842-7.806.508-3.086 2.985-5.724 6.065-6.066 1.264-.14 2.608.237 3.37 1.011-.928.209-1.696 1.214-2.64 1.516-.555.178-1.131.149-1.572.45-.391.267-.57.66-.842 1.123.71-.645 1.466-1.594 2.752-1.18.692-.636 1.472-1.206 2.279-1.729l.023-.012c.184-.096.45-.112.505-.337C23.12.768 21.966.303 20.58.326c-2.02.034-3.52.836-4.548 1.685a.282.282 0 00-.045.042c-.825-.252-1.553-.524-2.483-.38-2.649.415-4.81 2.7-5.672 4.83-4.131.56-6.538 5.135-5.11 9.548-1.083.962-2.23 1.726-2.585 3.312-.052.234-.066.355-.088.523-.443 3.456 2.202 6.262 3.907 8.07.166-.134.278-.322.505-.394.596.508 1.088 1.121 1.797 1.516.062.233.199.46.337.562 1.782 1.324 6.133 1.572 9.21 1.292.215.534.947.812 1.476 1.03h1.6c-.052-.023-.12-.047-.155-.091-.134-.329-.445-.251-.45-.602 1.789-.308 3.57-.623 5.167-1.123.425.487 1.497.019 1.91.336.077.396-.473.446-.787.562-.711.262-1.595.654-2.52.918h1.069c.421-.117.832-.25 1.226-.412.326-.134.65-.418 1.011-.45.51-.045 1.107.303 1.685.057.046.253.198.401.225.673a19.3 19.3 0 01-.246.132h1.665a.842.842 0 01-.352-.412c.847-.164 1.585-.438 2.19-.843 1.125.55 1.787-.535 2.415-1.01-.706.24-1.45 1.181-2.302.448v.002zm6.12 1.516c-.981.325-2.978.262-3.144-.899-.064-.452.206-1.357.505-1.685.117-.126.764-.58 1.18-.73.492-.175 1.232-.116 1.629 0-.699-1.922-2.843-2.697-4.605-3.369 1.448.929 3.319 1.435 4.155 2.976-1.226.047-1.998.548-2.639 1.18-.236-.157-.581-.205-.787-.393-.065.533.376.56.787.618-.658.783-.4 2.097.161 2.603h3.393c.477-.206.925-.472 1.275-.863-.725-.194-1.273.351-1.91.562zm9.418.3h.186a5.281 5.281 0 00-.28-.3c.019.106.052.205.093.3zm-3.408-1.704c.106.192.343.494.28.674-.704.104-1.677.146-1.965-.337-.487-.042-1.33.155-1.797-.112-.177.178-.45.26-.561.505.239.106.446-.25.73-.28.544.16 1.24.388 1.628.112.41.425 1.12.226 1.516.617-.022.243.03.41.134.526a.354.354 0 00.035.036.89.89 0 01-.002-.036c-.03-.506.176-.775.451-.975.45.37 1.113.442 1.741.505-.526-.297-1.196-.45-1.74-.73-.15-.133-.278-.582-.45-.504v-.001zm2.64-.057c-.097.245-.172.525.056.674a.403.403 0 00-.169.113c.21.086.529.547.73.28-.464-.142-.454-.77-.617-1.066zm.617 1.685c-.291-.214-.535-.475-.898-.617.228.24.574.66.898.617zM13.223 15.601c.952-.543-.144-1.68-.505-2.64-.636-1.686-.821-4.124-.337-5.672-1.243 2.532-.269 6.222.842 8.312zm28.979 12.805c.425.014.891.256 1.067.336-.069-.363-.659-.502-1.068-.337zm1.066 1.066c.012-.161-.014-.285-.112-.337-.04.133-.129.357.113.337zm.225.505c-.081-.199-.341-.22-.505-.336.056.225.316.246.505.337zm-3.145-.786c.36.071.275.587.506.786.396-.586 1.374.147 1.853 0-.585-.181-1.111-.423-1.797-.505-.157-.105-.058-.467-.337-.449.09.221-.243.02-.225.168zm11.344-4.997c.796.736.158 3.37-.842 3.032v-.056c.444-1.807-1.107-1.45-2.64-1.516-.868-.039-1.923-.14-2.583-.057-.554.07-1.514.324-1.46.843.655.158 1.324-.359 2.19-.393 1.066-.043 2.471.168 2.471.168.61.102 1.226.197 1.854.281.172.083-.048.142-.169.168-.12.027-1.36-.145-2.58-.323-.694-.108-1.824-.184-2.474.042-.44.154-.648.469-1.068.394-.283-.051-.364-.355-.617-.394-.318.805.56 1.007 1.011 1.349.928.703 1.454 2.085 2.415 2.64.947-1.245 2.54-1.84 3.706-2.865.082.086.288.05.45.056.689-.6 1.332-2.949.337-3.37zm-15.106.898l.225-.506c.245-.39.593-.679.786-1.123.218.25.388.548.954.45.21.893-.594 1.082-1.46 1.067.01.459.47.294.843.28-.06.284.128.322.112.562.43.254.816.158 1.18-.056-.744.982-1.934-.17-2.64-.561v-.113zm9.323-1.344c-.477-.104-.588-.573-.9-.843.572-.21 1.094.273.9.843zm2.245-.676c-.19-.015-.455.043-.562-.056.079-.072.006-.186.113-.337v-.002a.573.573 0 000-.333v-.003c-.25-.443-.494-.628-.954-.899-.602-.354-1.06-.532-2.078-.45-2.068.168-5.024.477-6.514 1.573-.98.72-1.375 1.801-1.91 2.527-2.531-1.59-6.392-3.13-8.2-5.447-.923-1.185-1.71-2.97-1.01-4.83.191-.164.272-.439.45-.618.026-.248-.078-.279 0-.448.933-.864 1.631-1.964 2.92-2.472.385.369 1.119.254 1.628-.112 1.037-.745 2.284-3.017 1.666-4.526a2.985 2.985 0 00-1.172-1.541.833.833 0 00-.19-.1 4.966 4.966 0 00-.416-.179c.092.094.2.175.31.25l.001.003.03.018.046.031c.216.147.836.622 1.132 1.381.168.672.2 1.584-.171 2.023-.14-.57-.168-.87-.409-1.485a4.708 4.708 0 00-.77-1.379c-1.129-1.452-4.377-.866-5.448.169 1.42-.53 3.279-1.17 4.661-.393.694.39 1.188 1.432 1.236 2.302.084 1.552-1.074 2.415-2.19 2.977.114-.215.01-.43 0-.675-.29-.267-1.013-.274-1.46-.167-1.127.267-1.913 1.496-2.247 2.358.063.182.49.294.393.45-.12-.105-.411-.039-.618-.057-.955.565-.376 1.78-.561 2.92-.03.18-.167.305-.169.45-.003.27.256.52.169.73.229.126.42.291.674.393.513 1.447 1.058 2.74 2.021 3.65 2.139 1.606 5.38 3.225 7.975 4.662.482.266.979.746 1.46.898.703.222.987-.2 1.404-.393.43.282 1.045.677 1.685.562-.659-.171-1.593-.283-1.46-1.067-.317.016-.538.449-.899.448-.34 0-.687-.298-.673-.617.03-.746 1.153-.526 1.516-.955-.215.048-.451.073-.73.056-.148-.114-.07-.455-.169-.617-.415.04-.715-.034-.786-.337.138-.406.41-.676.842-.787.233.16.352.435.562.618.19-.099-.002-.288.056-.561-.052-.136-.408.033-.337-.225 1.05-.84 3.984-1.227 6.005-1.347h.003c1.318-.078 2.179.687 2.528 1.517-1.292-.719-3.37-.66-4.998-.506-.828.079-1.566.007-2.135.337.695-.038 2.158.042 2.415.057.68.016 1.076-.03 1.63.112h.055c.328.739 1.087 1.047 1.46 1.74-.842 1.03-2.984 1.06-3.088 2.64.659-1.343 2.485-1.52 3.37-2.64.491-.368 1.139-.582 1.46-1.122h.393v.001c0 .088.337.088.336 0v-.001h.056l.003-.002h.002c.126.015.208-.015.22-.113-.106-.099-.37-.04-.56-.056l-.004.003h.002zm-12.804 4.21c-.227.29-.917.164-1.18 0-.129.17.181.277.113.562.504-.002 1.223-.087 1.067-.562zM48.098 23.8c.245.093.348-.246.45-.112-.427.335-.865.703-1.404.955-.548.255-1.196.324-1.63.73.591-.034 1.18-.371 1.742-.674.536-.29 1.144-.567 1.572-.899.21-.161.307-.434.562-.505.836-.23 1.491.25 2.078.562-.37-.459-1.323-.957-2.135-.787-.18.038-.314.26-.505.338-.289.116-.813-.01-.73.392zm-1.404 6.627c.049.233.248.315.45.394-.07-.213-.321-.241-.45-.394zm-6.851-7.02c.005-.144.22-.08.224-.224-.071-.077-.265-.077-.337 0-.015.128.014.211.113.225zm-7.188 3.145c.017.01.035.021.055.031a.184.184 0 00-.055-.031zm-3.988-2.583c.268-.032.505-.094.505-.394-.412.057-.639-.072-.954-.112-.009.346.457.217.673.337.019.15-.313-.052-.224.169zm-9.49-1.91c.916 1.451 2.514 2.29 4.66 2.472.814.068 1.325-.009 1.854.28.235.011.173-.276.45-.225 1.115.087 1.748-.309 2.47-.617-.65.063-1.396.233-1.853-.112-.068.385.313.323.45.505-1.003.297-1.782-.077-2.416-.45-.16.088.117.263-.056.338-2.58-.252-5.648-.992-5.504-3.763-.083.16-.114.372-.224.506-1.292-.917-3.248-3.107-3.482-5.392-.216-2.105 1.069-2.906 2.976-2.696.294.1.272.328.394.506.11-.246.28-.431.336-.73-2.06-.848-4.127.843-4.1 2.751.043 2.882 2.404 4.752 3.82 6.066-.097.29-.09.462-.113.73.16.151.155-.175.338-.17v.001zm15.387 8.2c.951 1.667 4.231-.358 2.752-1.629.878 1.284-1.579 2.4-2.752 1.63v-.001zM18.502 4.762c-1.31 1.715-1.776 4.835-1.516 7.75.505-.168.244-1.028.225-1.46a13.923 13.923 0 01.45-4.1c.22-.86.652-1.51.842-2.19zM29.51 23.014c.054.174.269.478.45.337-.207-.054-.286-.238-.45-.337zm-10.725-8.817c-.174 1.408.3 3.26.73 4.156.177.37.336.97.73.955-.223-.938-1.142-2.343-1.236-3.876-.114-1.859.638-3.357 2.583-2.976.316.208.45.599.73.843.215-.385.46-.739.618-1.18-1.81-1.145-3.916.12-4.156 2.078zM31.25 25.485c-.002.246.14.347.225.506.499.126 1.216.085 1.18-.394-.355.355-1.123.301-1.405-.112zm-1.01-1.853c.118.32.843.607.898.618-.27-.236-.521-.49-.898-.618zm-8-14.74c.394-1.578.956-2.12 1.314-2.538.466-.543.762-.867 1.238-1.255.107-.086.426-.13.337-.337-1.324.566-2.364 2.222-2.855 3.516-.21.407-.334.959-.458 1.482-.13.546-.353 1.208-.113 1.741.295-.259.163-.745.225-1.123.082-.498.224-1.012.312-1.485zm8.73 16.593c.311-.025.4-.274.505-.505-.471.21-.995.046-1.347-.169.07.526.552.397 1.01.45-.016.114-.151.11-.168.224zm3.144 1.067c-.451.203-1.11.174-1.404.031.088.07.1.217.169.306.459-.066 1.086.037 1.235-.337z" fill="#FFF" mask="url(#b)"/></g></svg>